<svg width="24" height="24" viewBox="0 0 24 24" fill="none" xmlns="http://www.w3.org/2000/svg">
<circle cx="12" cy="12" r="11.5" fill="white" stroke="black"/>
<path d="M15.8027 4C18.1595 4.00016 20.0703 5.91081 20.0703 8.26758V15.8027C20.0702 18.1594 18.1594 20.0702 15.8027 20.0703H8.26758C5.91081 20.0703 4.00016 18.1595 4 15.8027V8.26758C4 5.91071 5.91071 4 8.26758 4H15.8027ZM8.26758 5C6.463 5 5 6.463 5 8.26758V15.8027C5.00016 17.6072 6.4631 19.0703 8.26758 19.0703H15.8027C17.6071 19.0702 19.0702 17.6071 19.0703 15.8027V8.26758C19.0703 6.4631 17.6072 5.00016 15.8027 5H8.26758ZM10.4492 8.88281C11.1052 8.54246 11.852 8.41799 12.583 8.52637C13.3288 8.63696 14.0196 8.98448 14.5527 9.51758C15.0857 10.0507 15.4334 10.7416 15.5439 11.4873C15.6522 12.2182 15.5269 12.9652 15.1865 13.6211C14.8461 14.2769 14.3075 14.8084 13.6475 15.1406C12.9874 15.4729 12.2394 15.589 11.5098 15.4717C10.7801 15.3543 10.1056 15.0098 9.58301 14.4873C9.0604 13.9647 8.71607 13.2902 8.59863 12.5605C8.48124 11.831 8.59658 11.0829 8.92871 10.4229C9.26101 9.76264 9.79316 9.22323 10.4492 8.88281ZM12.4365 9.51562C11.9136 9.43808 11.3794 9.52711 10.9102 9.77051C10.4408 10.014 10.06 10.3997 9.82227 10.8721C9.58458 11.3443 9.502 11.8794 9.58594 12.4014C9.66995 12.9234 9.91615 13.4064 10.29 13.7803C10.6638 14.154 11.1461 14.4003 11.668 14.4844C12.19 14.5684 12.7259 14.4858 13.1982 14.248C13.6704 14.0103 14.0553 13.6294 14.2988 13.1602C14.5423 12.6909 14.6322 12.1567 14.5547 11.6338C14.4756 11.1003 14.227 10.606 13.8457 10.2246C13.4643 9.84324 12.97 9.59476 12.4365 9.51562ZM16.1875 7.39062C16.4635 7.3907 16.6874 7.61458 16.6875 7.89062C16.6875 8.16672 16.4636 8.39055 16.1875 8.39062H16.1787C15.9028 8.39037 15.6787 8.16661 15.6787 7.89062C15.6788 7.61469 15.9028 7.39088 16.1787 7.39062H16.1875Z" fill="black"/>
</svg>
