<svg width="366" height="150" viewBox="0 0 366 150" fill="none" xmlns="http://www.w3.org/2000/svg">
<g clip-path="url(#clip0_8497_32239)">
<path d="M249.18 113.89H126.77C126.619 113.89 126.47 113.86 126.331 113.802C126.192 113.744 126.066 113.659 125.96 113.553C125.854 113.446 125.771 113.319 125.714 113.179C125.657 113.04 125.629 112.891 125.63 112.74V39.23C125.63 37.3735 126.367 35.593 127.68 34.2802C128.993 32.9675 130.773 32.23 132.63 32.23H243.32C245.176 32.23 246.957 32.9675 248.27 34.2802C249.582 35.593 250.32 37.3735 250.32 39.23V112.74C250.32 113.043 250.2 113.334 249.987 113.55C249.773 113.765 249.483 113.887 249.18 113.89Z" fill="#F2F2F2"/>
<path d="M219.73 23.1799C219.937 22.3646 220.38 21.6288 221.004 21.0656C221.629 20.5024 222.407 20.1371 223.239 20.016C224.071 19.8949 224.92 20.0234 225.679 20.3852C226.439 20.747 227.073 21.3259 227.503 22.0486C227.933 22.7713 228.139 23.6053 228.095 24.4451C228.051 25.2849 227.758 26.0927 227.255 26.7663C226.751 27.4398 226.059 27.9489 225.266 28.229C224.474 28.5091 223.615 28.5477 222.8 28.3399C222.26 28.2033 221.751 27.9614 221.304 27.628C220.857 27.2945 220.48 26.8762 220.195 26.3969C219.91 25.9175 219.722 25.3866 219.642 24.8346C219.562 24.2826 219.592 23.7203 219.73 23.1799Z" fill="#E6E6E6"/>
<path d="M199.63 21.45V27C199.629 27.0785 199.653 27.1552 199.697 27.2197C199.742 27.2841 199.806 27.3332 199.88 27.36L204.22 28.86C204.723 30.9804 205.564 33.0062 206.71 34.86L204.71 38.99C204.676 39.0602 204.664 39.1391 204.677 39.216C204.689 39.293 204.725 39.3642 204.78 39.42L208.68 43.33C208.735 43.3844 208.807 43.4202 208.884 43.4328C208.96 43.4453 209.039 43.4338 209.11 43.4L213.25 41.4C215.102 42.5484 217.128 43.3893 219.25 43.89L220.75 48.23C220.771 48.3057 220.818 48.3721 220.881 48.419C220.944 48.466 221.021 48.4909 221.1 48.49H226.62C226.698 48.4892 226.774 48.4649 226.838 48.4204C226.902 48.3758 226.952 48.313 226.98 48.24L228.48 43.9C230.6 43.3965 232.626 42.5558 234.48 41.41L238.61 43.41C238.68 43.4438 238.759 43.4553 238.836 43.4428C238.913 43.4302 238.984 43.3944 239.04 43.34L242.94 39.44C242.996 39.383 243.032 39.3094 243.043 39.23C243.054 39.1507 243.039 39.07 243 39L241 34.86C242.148 33.0075 242.989 30.9813 243.49 28.86L247.83 27.36C247.904 27.3354 247.968 27.2886 248.015 27.226C248.061 27.1634 248.087 27.088 248.09 27.01V21.48C248.089 21.4019 248.065 21.3258 248.02 21.2616C247.975 21.1974 247.913 21.1481 247.84 21.12L243.49 19.62C242.997 17.4978 242.159 15.4709 241.01 13.62L243.01 9.48001C243.043 9.40981 243.055 9.3309 243.042 9.25398C243.03 9.17707 242.994 9.10586 242.94 9.05001L239 5.16001C238.944 5.10187 238.872 5.0628 238.793 5.04843C238.714 5.03406 238.632 5.04511 238.56 5.08001L234.43 7.08001C232.577 5.93159 230.551 5.09071 228.43 4.59001L227 0.260011C226.973 0.185198 226.925 0.120226 226.86 0.0737699C226.796 0.0273135 226.719 0.00158242 226.64 1.12593e-05H221.13C221.051 -0.000592713 220.974 0.0231155 220.91 0.0678794C220.845 0.112643 220.796 0.176267 220.77 0.250011L219.27 4.60001C217.148 5.09574 215.122 5.93335 213.27 7.08001L209.14 5.08001C209.069 5.04618 208.99 5.03475 208.914 5.04727C208.837 5.05979 208.765 5.09566 208.71 5.15001L204.78 9.00001C204.726 9.05814 204.69 9.13101 204.678 9.20936C204.665 9.28771 204.676 9.368 204.71 9.44001L206.71 13.57C205.561 15.4225 204.72 17.4487 204.22 19.57L199.88 21.07C199.802 21.0979 199.736 21.15 199.691 21.2185C199.646 21.287 199.625 21.3682 199.63 21.45ZM214.14 14.45C216.046 12.5424 218.476 11.2433 221.122 10.7174C223.767 10.1914 226.509 10.4622 229.001 11.4954C231.492 12.5286 233.621 14.2778 235.118 16.5216C236.615 18.7653 237.412 21.4028 237.41 24.1C237.41 24.57 237.41 25.03 237.34 25.49C237.133 27.4741 236.495 29.389 235.47 31.1C235.449 31.1372 235.421 31.1698 235.387 31.1958C235.353 31.2217 235.315 31.2404 235.274 31.2507C235.232 31.261 235.189 31.2627 235.147 31.2557C235.105 31.2487 235.065 31.2332 235.03 31.21C234.975 31.1804 234.93 31.1349 234.902 31.0797C234.873 31.0244 234.862 30.9618 234.87 30.9C234.861 30.8571 234.861 30.8129 234.87 30.77C235.85 29.1397 236.458 27.3128 236.65 25.42C236.698 24.9817 236.721 24.541 236.72 24.1C236.72 20.6522 235.35 17.3456 232.912 14.9076C230.474 12.4697 227.167 11.1 223.72 11.1C220.507 11.0997 217.408 12.2889 215.02 14.4383C212.633 16.5877 211.126 19.5451 210.79 22.74C210.79 23.18 210.73 23.62 210.73 24.07C210.73 27.5178 212.099 30.8244 214.537 33.2624C216.975 35.7004 220.282 37.07 223.73 37.07C224.654 37.0697 225.576 36.9725 226.48 36.78C226.522 36.7697 226.565 36.7681 226.608 36.7753C226.651 36.7824 226.692 36.7981 226.728 36.8215C226.765 36.8449 226.796 36.8754 226.82 36.9112C226.845 36.9471 226.861 36.9875 226.87 37.03C226.88 37.0626 226.88 37.0974 226.87 37.13C226.863 37.1971 226.835 37.2602 226.79 37.3105C226.745 37.3608 226.685 37.3956 226.62 37.41H226.46H226.35C225.634 37.5497 224.908 37.63 224.18 37.65H223.73C223.262 37.6483 222.794 37.6216 222.33 37.57C218.975 37.2211 215.868 35.6405 213.611 33.134C211.354 30.6275 210.106 27.3731 210.11 24C210.108 23.5324 210.131 23.0651 210.18 22.6C210.534 19.5236 211.932 16.6614 214.14 14.49V14.45ZM223.29 29.7C223.02 29.6689 222.753 29.6221 222.49 29.56C221.434 29.2877 220.483 28.7102 219.755 27.8999C219.026 27.0896 218.553 26.0824 218.394 25.0044C218.235 23.9264 218.397 22.8254 218.86 21.8392C219.324 20.853 220.068 20.0254 221 19.46C221.624 19.0837 222.317 18.8358 223.038 18.7311C223.759 18.6263 224.494 18.6668 225.2 18.85C226.569 19.1816 227.76 20.0224 228.532 21.2014C229.303 22.3803 229.596 23.8088 229.351 25.1963C229.107 26.5837 228.343 27.8259 227.215 28.6699C226.087 29.514 224.68 29.8967 223.28 29.74L223.29 29.7Z" fill="#E6E6E6"/>
<path d="M244.19 45.27V49C244.192 49.0511 244.209 49.1006 244.239 49.1417C244.269 49.1829 244.312 49.2137 244.36 49.23L247.27 50.23C247.598 51.646 248.159 52.9978 248.93 54.23L247.58 57C247.55 57.0424 247.534 57.093 247.534 57.145C247.534 57.197 247.55 57.2477 247.58 57.29L250.19 59.9C250.233 59.9288 250.283 59.9442 250.335 59.9442C250.387 59.9442 250.437 59.9288 250.48 59.9L253.24 58.55C254.474 59.3201 255.825 59.8841 257.24 60.22L258.24 63.13C258.258 63.1793 258.291 63.2219 258.334 63.2522C258.377 63.2826 258.428 63.2992 258.48 63.3H262.17C262.223 63.3007 262.275 63.2846 262.318 63.254C262.361 63.2235 262.393 63.1801 262.41 63.13L263.41 60.22C264.826 59.8919 266.178 59.3309 267.41 58.56L270.26 60C270.308 60.0234 270.361 60.0312 270.413 60.0222C270.465 60.0132 270.513 59.988 270.55 59.95L273.16 57.34C273.187 57.2982 273.201 57.2496 273.201 57.2C273.201 57.1504 273.187 57.1018 273.16 57.06L271.81 54.29C272.58 53.0562 273.144 51.7051 273.48 50.29L276.38 49.29C276.431 49.2735 276.476 49.2416 276.508 49.1986C276.54 49.1556 276.559 49.1037 276.56 49.05V45.3C276.561 45.2472 276.545 45.1955 276.514 45.1524C276.484 45.1093 276.44 45.0769 276.39 45.06L273.48 44.06C273.148 42.6454 272.587 41.2944 271.82 40.06L273.17 37.29C273.194 37.2445 273.203 37.1921 273.194 37.1414C273.185 37.0906 273.159 37.0443 273.12 37.01L270.51 34.39C270.466 34.3635 270.416 34.3495 270.365 34.3495C270.314 34.3495 270.264 34.3635 270.22 34.39L267.46 35.74C266.226 34.97 264.875 34.4059 263.46 34.07L262.46 31.17C262.443 31.12 262.411 31.0765 262.368 31.046C262.325 31.0155 262.273 30.9994 262.22 31H258.53C258.477 30.9994 258.426 31.0155 258.382 31.046C258.339 31.0765 258.307 31.12 258.29 31.17L257.29 34.08C255.875 34.4125 254.524 34.9731 253.29 35.74L250.52 34.39C250.478 34.3599 250.427 34.3437 250.375 34.3437C250.323 34.3437 250.272 34.3599 250.23 34.39L247.64 37C247.614 37.0438 247.6 37.0939 247.6 37.145C247.6 37.1961 247.614 37.2463 247.64 37.29L248.94 40C248.17 41.2339 247.606 42.5849 247.27 44L244.36 45C244.307 45.0211 244.262 45.0587 244.231 45.1072C244.2 45.1558 244.186 45.2128 244.19 45.27ZM253.7 40.42C255.017 39.105 256.694 38.2098 258.519 37.8477C260.344 37.4855 262.236 37.6727 263.955 38.3855C265.674 39.0984 267.143 40.3048 268.176 41.8524C269.209 43.4 269.761 45.2192 269.76 47.08C269.76 47.4 269.76 47.72 269.71 48.08C269.57 49.4524 269.13 50.7771 268.42 51.96C268.35 52.0725 268.238 52.1532 268.11 52.185C267.981 52.2167 267.845 52.197 267.73 52.13C267.649 52.0811 267.583 52.01 267.54 51.9249C267.498 51.8399 267.48 51.7446 267.49 51.65C267.5 51.5762 267.524 51.5049 267.56 51.44C268.198 50.3876 268.591 49.205 268.71 47.98C268.742 47.6978 268.758 47.414 268.76 47.13C268.742 44.9924 267.911 42.9419 266.435 41.3952C264.96 39.8485 262.951 38.9217 260.816 38.8033C258.682 38.6848 256.583 39.3836 254.945 40.7576C253.307 42.1315 252.254 44.0775 252 46.2C251.969 46.4856 251.952 46.7727 251.95 47.06C251.946 48.1629 252.16 49.2556 252.581 50.2751C253.001 51.2946 253.62 52.2208 254.4 53C254.947 53.4956 255.555 53.9191 256.21 54.26C257.436 54.9311 258.813 55.2755 260.21 55.26H259.79V55.43C260.461 55.4487 261.132 55.3917 261.79 55.26C261.937 55.2326 262.088 55.2564 262.219 55.3274C262.35 55.3984 262.453 55.5123 262.51 55.65C262.51 55.65 262.59 55.76 262.58 55.81C262.578 55.9119 262.541 56.0098 262.475 56.088C262.41 56.1661 262.32 56.2197 262.22 56.24H262.15C261.525 56.3718 260.889 56.4388 260.25 56.44C259.93 56.44 259.62 56.44 259.3 56.44C256.984 56.1977 254.84 55.1061 253.281 53.3757C251.722 51.6453 250.86 49.3989 250.86 47.07C250.86 46.75 250.86 46.43 250.91 46.07C251.158 43.9206 252.144 41.9238 253.7 40.42ZM262.33 50.42C261.688 50.8003 260.947 50.9819 260.201 50.9417C259.456 50.9016 258.739 50.6415 258.141 50.1944C257.543 49.7473 257.091 49.1332 256.842 48.4294C256.592 47.7256 256.557 46.9638 256.74 46.24C256.893 45.6369 257.192 45.0808 257.611 44.621C258.03 44.1612 258.556 43.8119 259.142 43.6041C259.729 43.3964 260.357 43.3366 260.973 43.4301C261.588 43.5235 262.17 43.7674 262.668 44.1399C263.167 44.5125 263.565 45.0023 263.829 45.5658C264.092 46.1293 264.213 46.7492 264.179 47.3704C264.146 47.9917 263.959 48.595 263.637 49.127C263.314 49.659 262.865 50.1031 262.33 50.42Z" fill="#E6E6E6"/>
<path d="M258 48.5498C257.811 48.2379 257.687 47.8912 257.636 47.5304C257.584 47.1695 257.606 46.802 257.7 46.4498C257.863 45.7983 258.257 45.2283 258.809 44.8457C259.36 44.4631 260.032 44.2939 260.7 44.3698C260.835 44.3785 260.969 44.402 261.1 44.4398C261.632 44.5754 262.112 44.8655 262.479 45.2737C262.847 45.6818 263.085 46.1896 263.164 46.7329C263.243 47.2763 263.16 47.831 262.924 48.327C262.688 48.8229 262.311 49.238 261.84 49.5198C261.528 49.7084 261.181 49.8322 260.82 49.8838C260.459 49.9353 260.092 49.9136 259.74 49.8198C259.379 49.7361 259.039 49.5805 258.74 49.3622C258.441 49.144 258.189 48.8677 258 48.5498Z" fill="#E6E6E6"/>
<path d="M126.77 117.28C125.522 117.301 124.313 116.841 123.394 115.996C122.474 115.151 121.915 113.986 121.83 112.74V39.2298C121.83 33.4698 126.83 29.2798 132.63 29.2798H243.32C249.08 29.2798 253.83 33.4698 253.83 39.2298V112.74C253.812 113.957 253.312 115.118 252.441 115.969C251.57 116.819 250.398 117.29 249.18 117.28H126.77Z" fill="white"/>
<path d="M114.55 26.1201H92.7395C92.6039 26.1203 92.4696 26.0929 92.3449 26.0395C92.2202 25.9862 92.1077 25.908 92.0141 25.8098C91.9206 25.7116 91.848 25.5953 91.8008 25.4682C91.7536 25.341 91.7327 25.2056 91.7395 25.0701V13.1701C91.7327 13.0347 91.7536 12.8992 91.8008 12.7721C91.848 12.6449 91.9206 12.5287 92.0141 12.4305C92.1077 12.3322 92.2202 12.2541 92.3449 12.2007C92.4696 12.1474 92.6039 12.1199 92.7395 12.1201H114.55C114.685 12.1199 114.819 12.1474 114.944 12.2007C115.069 12.2541 115.181 12.3322 115.275 12.4305C115.368 12.5287 115.441 12.6449 115.488 12.7721C115.535 12.8992 115.556 13.0347 115.55 13.1701V25.0701C115.556 25.2056 115.535 25.341 115.488 25.4682C115.441 25.5953 115.368 25.7116 115.275 25.8098C115.181 25.908 115.069 25.9862 114.944 26.0395C114.819 26.0929 114.685 26.1203 114.55 26.1201ZM92.7395 12.5701C92.5804 12.5701 92.4278 12.6333 92.3153 12.7459C92.2027 12.8584 92.1395 13.011 92.1395 13.1701V25.0701C92.1395 25.2292 92.2027 25.3819 92.3153 25.4944C92.4278 25.6069 92.5804 25.6701 92.7395 25.6701H114.55C114.709 25.6701 114.861 25.6069 114.974 25.4944C115.086 25.3819 115.15 25.2292 115.15 25.0701V13.1701C115.15 13.011 115.086 12.8584 114.974 12.7459C114.861 12.6333 114.709 12.5701 114.55 12.5701H92.7395Z" fill="#E6E6E6"/>
<path d="M115.38 17.05H91.9097C91.8513 17.05 91.7954 17.0268 91.7541 16.9856C91.7129 16.9443 91.6897 16.8884 91.6897 16.83V15C91.6883 14.9703 91.693 14.9406 91.7035 14.9128C91.7139 14.8849 91.7299 14.8594 91.7505 14.8379C91.771 14.8164 91.7957 14.7993 91.8231 14.7877C91.8505 14.776 91.8799 14.77 91.9097 14.77H115.38C115.409 14.77 115.439 14.776 115.466 14.7877C115.494 14.7993 115.518 14.8164 115.539 14.8379C115.559 14.8594 115.575 14.8849 115.586 14.9128C115.596 14.9406 115.601 14.9703 115.6 15V16.82C115.601 16.8497 115.596 16.8794 115.586 16.9073C115.575 16.9351 115.559 16.9606 115.539 16.9821C115.518 17.0036 115.494 17.0207 115.466 17.0324C115.439 17.044 115.409 17.05 115.38 17.05ZM92.1397 16.6H115.14V15.23H92.1397V16.6Z" fill="#E6E6E6"/>
<path d="M109.08 23.1298C108.658 23.0972 108.264 22.9065 107.976 22.596C107.689 22.2855 107.529 21.8779 107.529 21.4548C107.529 21.0316 107.689 20.6241 107.976 20.3136C108.264 20.003 108.658 19.8124 109.08 19.7798C109.51 19.7806 109.922 19.9493 110.23 20.2498C110.252 20.2703 110.269 20.2951 110.281 20.3227C110.293 20.3502 110.299 20.3798 110.299 20.4098C110.299 20.4397 110.293 20.4694 110.281 20.4969C110.269 20.5244 110.252 20.5492 110.23 20.5698C110.112 20.6841 110.019 20.8209 109.955 20.9721C109.892 21.1233 109.859 21.2858 109.86 21.4498C109.859 21.6153 109.891 21.7794 109.955 21.9322C110.018 22.0851 110.112 22.2236 110.23 22.3398C110.252 22.3603 110.269 22.3851 110.281 22.4127C110.293 22.4402 110.299 22.4698 110.299 22.4998C110.299 22.5297 110.293 22.5594 110.281 22.5869C110.269 22.6144 110.252 22.6392 110.23 22.6598C109.922 22.9603 109.51 23.1289 109.08 23.1298ZM109.08 20.2298C108.89 20.2299 108.702 20.2744 108.533 20.3597C108.363 20.4451 108.215 20.5689 108.102 20.7214C107.988 20.8739 107.912 21.0507 107.879 21.2379C107.846 21.425 107.857 21.6173 107.912 21.7994C107.966 21.9815 108.062 22.1483 108.193 22.2866C108.323 22.4249 108.484 22.5308 108.662 22.5959C108.841 22.6611 109.032 22.6836 109.221 22.6617C109.41 22.6398 109.591 22.574 109.75 22.4698C109.531 22.182 109.412 21.8311 109.41 21.4698C109.41 21.1081 109.529 20.7565 109.75 20.4698C109.557 20.3216 109.323 20.2376 109.08 20.2298Z" fill="#E6E6E6"/>
<path d="M111.08 23.13C110.747 23.132 110.421 23.0351 110.144 22.8517C109.866 22.6683 109.649 22.4067 109.52 22.0999C109.392 21.7931 109.357 21.455 109.421 21.1284C109.484 20.8019 109.644 20.5016 109.878 20.2656C110.113 20.0297 110.412 19.8687 110.738 19.803C111.064 19.7374 111.403 19.7701 111.71 19.8969C112.018 20.0238 112.281 20.2391 112.466 20.5156C112.651 20.7921 112.75 21.1173 112.75 21.45C112.75 21.8938 112.574 22.3196 112.261 22.6344C111.948 22.9492 111.523 23.1273 111.08 23.13ZM111.08 20.23C110.838 20.23 110.602 20.3015 110.402 20.4356C110.201 20.5697 110.045 20.7602 109.953 20.9831C109.86 21.206 109.836 21.4513 109.883 21.688C109.93 21.9247 110.046 22.142 110.217 22.3127C110.388 22.4833 110.605 22.5995 110.842 22.6465C111.078 22.6936 111.324 22.6695 111.547 22.5771C111.769 22.4848 111.96 22.3284 112.094 22.1278C112.228 21.9272 112.3 21.6913 112.3 21.45C112.3 21.1264 112.171 20.8161 111.942 20.5873C111.714 20.3585 111.403 20.23 111.08 20.23Z" fill="#E6E6E6"/>
<path d="M102.9 19.8002H93.1499C93.1202 19.8002 93.0907 19.7942 93.0633 19.7826C93.036 19.7709 93.0113 19.7538 92.9907 19.7323C92.9701 19.7108 92.9542 19.6853 92.9437 19.6575C92.9333 19.6296 92.9286 19.5999 92.9299 19.5702C92.9299 19.5119 92.9531 19.4559 92.9944 19.4147C93.0356 19.3734 93.0916 19.3502 93.1499 19.3502H102.9C102.933 19.3431 102.968 19.3436 103.001 19.3516C103.035 19.3596 103.066 19.3749 103.092 19.3965C103.119 19.4181 103.14 19.4453 103.155 19.4762C103.17 19.5071 103.178 19.541 103.178 19.5752C103.178 19.6095 103.17 19.6433 103.155 19.6742C103.14 19.7051 103.119 19.7324 103.092 19.7539C103.066 19.7755 103.035 19.7908 103.001 19.7988C102.968 19.8068 102.933 19.8073 102.9 19.8002Z" fill="#E6E6E6"/>
<path d="M102.9 22.5298H93.1499C93.0907 22.5272 93.0347 22.5019 92.9937 22.459C92.9527 22.4162 92.9299 22.3591 92.9299 22.2998C92.9286 22.2701 92.9333 22.2404 92.9437 22.2126C92.9542 22.1847 92.9701 22.1593 92.9907 22.1378C93.0113 22.1163 93.036 22.0992 93.0633 22.0875C93.0907 22.0758 93.1202 22.0698 93.1499 22.0698H102.9C102.93 22.0698 102.96 22.0758 102.988 22.0873C103.016 22.0989 103.041 22.1158 103.063 22.1372C103.084 22.1585 103.101 22.1839 103.112 22.2118C103.124 22.2397 103.13 22.2696 103.13 22.2998C103.13 22.33 103.124 22.3599 103.112 22.3878C103.101 22.4157 103.084 22.4411 103.063 22.4625C103.041 22.4838 103.016 22.5008 102.988 22.5123C102.96 22.5239 102.93 22.5298 102.9 22.5298Z" fill="#E6E6E6"/>
<path d="M94.7295 13.8998H93.4995C93.4412 13.8998 93.3852 13.8766 93.344 13.8354C93.3027 13.7941 93.2795 13.7382 93.2795 13.6798C93.2782 13.6501 93.2829 13.6204 93.2933 13.5926C93.3038 13.5647 93.3198 13.5393 93.3403 13.5178C93.3609 13.4963 93.3856 13.4791 93.413 13.4675C93.4403 13.4558 93.4698 13.4498 93.4995 13.4498H94.7295C94.763 13.4427 94.7977 13.4432 94.831 13.4512C94.8643 13.4592 94.8954 13.4746 94.922 13.4961C94.9486 13.5177 94.9701 13.5449 94.9848 13.5758C94.9996 13.6068 95.0072 13.6406 95.0072 13.6748C95.0072 13.7091 94.9996 13.7429 94.9848 13.7738C94.9701 13.8047 94.9486 13.832 94.922 13.8535C94.8954 13.8751 94.8643 13.8904 94.831 13.8984C94.7977 13.9065 94.763 13.9069 94.7295 13.8998Z" fill="#E6E6E6"/>
<path d="M97.2703 13.8998H96.0004C95.9668 13.9069 95.9322 13.9065 95.8989 13.8984C95.8656 13.8904 95.8345 13.8751 95.8079 13.8535C95.7812 13.832 95.7598 13.8047 95.745 13.7738C95.7303 13.7429 95.7227 13.7091 95.7227 13.6748C95.7227 13.6406 95.7303 13.6068 95.745 13.5758C95.7598 13.5449 95.7812 13.5177 95.8079 13.4961C95.8345 13.4746 95.8656 13.4592 95.8989 13.4512C95.9322 13.4432 95.9668 13.4427 96.0004 13.4498H97.2304C97.2601 13.4498 97.2896 13.4558 97.3169 13.4675C97.3443 13.4791 97.369 13.4963 97.3896 13.5178C97.4101 13.5393 97.4261 13.5647 97.4366 13.5926C97.447 13.6204 97.4517 13.6501 97.4503 13.6798C97.4512 13.7319 97.4336 13.7825 97.4007 13.8228C97.3677 13.8631 97.3215 13.8904 97.2703 13.8998Z" fill="#E6E6E6"/>
<path d="M99.7998 13.8998H98.5698C98.5115 13.8998 98.4555 13.8766 98.4143 13.8354C98.373 13.7941 98.3498 13.7382 98.3498 13.6798C98.3485 13.6501 98.3532 13.6204 98.3636 13.5926C98.3741 13.5647 98.3901 13.5393 98.4106 13.5178C98.4312 13.4963 98.4559 13.4791 98.4833 13.4675C98.5106 13.4558 98.5401 13.4498 98.5698 13.4498H99.7998C99.8333 13.4427 99.868 13.4432 99.9013 13.4512C99.9346 13.4592 99.9657 13.4746 99.9923 13.4961C100.019 13.5177 100.04 13.5449 100.055 13.5758C100.07 13.6068 100.078 13.6406 100.078 13.6748C100.078 13.7091 100.07 13.7429 100.055 13.7738C100.04 13.8047 100.019 13.832 99.9923 13.8535C99.9657 13.8751 99.9346 13.8904 99.9013 13.8984C99.868 13.9065 99.8333 13.9069 99.7998 13.8998Z" fill="#E6E6E6"/>
<path d="M91.9099 22.6302H89.1899C88.9105 22.6302 88.6424 22.5199 88.4439 22.3233C88.2454 22.1266 88.1325 21.8596 88.1299 21.5802V9.68018C88.1452 9.40958 88.2636 9.15513 88.4608 8.96914C88.6579 8.78315 88.9189 8.67974 89.1899 8.68018H111C111.265 8.68018 111.519 8.78553 111.707 8.97307C111.895 9.16061 112 9.41496 112 9.68018V12.3402C112 12.4012 111.976 12.4597 111.933 12.5028C111.889 12.5459 111.831 12.5702 111.77 12.5702H92.7399C92.5808 12.5702 92.4281 12.6334 92.3156 12.7459C92.2031 12.8584 92.1399 13.011 92.1399 13.1702V22.4002C92.1399 22.4612 92.1157 22.5197 92.0725 22.5628C92.0294 22.6059 91.9709 22.6302 91.9099 22.6302ZM89.1899 9.08018C89.0308 9.08018 88.8781 9.14339 88.7656 9.25591C88.6531 9.36844 88.5899 9.52105 88.5899 9.68018V21.5802C88.5899 21.7393 88.6531 21.8919 88.7656 22.0044C88.8781 22.117 89.0308 22.1802 89.1899 22.1802H91.6899V13.1802C91.6831 13.0447 91.704 12.9093 91.7512 12.7821C91.7984 12.655 91.871 12.5387 91.9645 12.4405C92.058 12.3423 92.1706 12.2641 92.2953 12.2108C92.42 12.1574 92.5543 12.13 92.6899 12.1302H111.6V9.68018C111.6 9.52105 111.537 9.36844 111.424 9.25591C111.312 9.14339 111.159 9.08018 111 9.08018H89.1899Z" fill="#E6E6E6"/>
<path d="M2.16 66.4601C1.73279 66.4601 1.31518 66.3335 0.959969 66.0961C0.604759 65.8588 0.327906 65.5214 0.164421 65.1267C0.000935882 64.732 -0.0418393 64.2977 0.0415048 63.8787C0.124849 63.4597 0.330569 63.0749 0.63265 62.7728C0.934732 62.4707 1.31961 62.265 1.73861 62.1816C2.1576 62.0983 2.59191 62.1411 2.9866 62.3046C3.38129 62.468 3.71863 62.7449 3.95598 63.1001C4.19332 63.4553 4.32 63.8729 4.32 64.3001C4.32 64.873 4.09243 65.4224 3.68735 65.8275C3.28227 66.2326 2.73287 66.4601 2.16 66.4601ZM2.16 62.9301C1.88904 62.9301 1.62417 63.0105 1.39887 63.161C1.17357 63.3116 0.997978 63.5255 0.894286 63.7759C0.790594 64.0262 0.763463 64.3017 0.816325 64.5674C0.869187 64.8332 0.999667 65.0773 1.19126 65.2689C1.38286 65.4605 1.62697 65.591 1.89273 65.6438C2.15848 65.6967 2.43394 65.6695 2.68428 65.5659C2.93461 65.4622 3.14858 65.2866 3.29911 65.0613C3.44965 64.836 3.53 64.5711 3.53 64.3001C3.52738 63.9376 3.3822 63.5907 3.12584 63.3343C2.86948 63.0779 2.52254 62.9328 2.16 62.9301Z" fill="#E6E6E6"/>
<path d="M91.0604 95.5002C90.6332 95.5002 90.2156 95.3735 89.8604 95.1361C89.5051 94.8988 89.2283 94.5615 89.0648 94.1668C88.9013 93.7721 88.8586 93.3378 88.9419 92.9188C89.0252 92.4998 89.231 92.1149 89.533 91.8128C89.8351 91.5107 90.22 91.305 90.639 91.2217C91.058 91.1383 91.4923 91.1811 91.887 91.3446C92.2817 91.5081 92.619 91.7849 92.8564 92.1401C93.0937 92.4954 93.2204 92.913 93.2204 93.3402C93.2204 93.913 92.9928 94.4624 92.5877 94.8675C92.1827 95.2726 91.6333 95.5002 91.0604 95.5002ZM91.0604 91.9702C90.7894 91.9702 90.5246 92.0505 90.2993 92.2011C90.074 92.3516 89.8984 92.5656 89.7947 92.8159C89.691 93.0662 89.6639 93.3417 89.7167 93.6075C89.7696 93.8732 89.9001 94.1173 90.0917 94.3089C90.2833 94.5005 90.5274 94.631 90.7931 94.6839C91.0589 94.7367 91.3343 94.7096 91.5847 94.6059C91.835 94.5022 92.049 94.3266 92.1995 94.1013C92.35 93.876 92.4304 93.6111 92.4304 93.3402C92.4225 92.9821 92.2747 92.6413 92.0187 92.3908C91.7626 92.1403 91.4186 92.0001 91.0604 92.0002V91.9702Z" fill="#E6E6E6"/>
<path d="M67.7096 117.27C67.6035 117.27 67.5017 117.228 67.4267 117.153C67.3517 117.078 67.3096 116.976 67.3096 116.87V111.41C67.3096 111.304 67.3517 111.202 67.4267 111.127C67.5017 111.052 67.6035 111.01 67.7096 111.01C67.8157 111.01 67.9174 111.052 67.9924 111.127C68.0674 111.202 68.1096 111.304 68.1096 111.41V116.87C68.1096 116.976 68.0674 117.078 67.9924 117.153C67.9174 117.228 67.8157 117.27 67.7096 117.27Z" fill="#E6E6E6"/>
<path d="M70.4396 114.54H64.9996C64.8935 114.54 64.7918 114.498 64.7168 114.423C64.6418 114.348 64.5996 114.246 64.5996 114.14C64.5996 114.088 64.61 114.037 64.6302 113.989C64.6504 113.941 64.6801 113.897 64.7174 113.861C64.7546 113.824 64.7988 113.796 64.8473 113.777C64.8958 113.758 64.9476 113.749 64.9996 113.75H70.4596C70.5117 113.749 70.5635 113.758 70.6119 113.777C70.6604 113.796 70.7046 113.824 70.7419 113.861C70.7791 113.897 70.8088 113.941 70.829 113.989C70.8492 114.037 70.8596 114.088 70.8596 114.14C70.8597 114.194 70.8487 114.248 70.8274 114.298C70.806 114.348 70.7748 114.393 70.7355 114.43C70.6962 114.468 70.6497 114.497 70.5988 114.516C70.548 114.534 70.4938 114.543 70.4396 114.54Z" fill="#E6E6E6"/>
<path d="M55.4801 37.7301C55.428 37.7315 55.3762 37.7223 55.3278 37.7033C55.2793 37.6843 55.2351 37.6558 55.1978 37.6195C55.1605 37.5831 55.1309 37.5397 55.1107 37.4917C55.0905 37.4437 55.0801 37.3922 55.0801 37.3401V31.8701C55.0801 31.818 55.0905 31.7665 55.1107 31.7185C55.1309 31.6705 55.1605 31.6271 55.1978 31.5907C55.2351 31.5544 55.2793 31.5259 55.3278 31.5069C55.3762 31.4879 55.428 31.4788 55.4801 31.4801C55.5317 31.4787 55.583 31.4879 55.6309 31.507C55.6789 31.5261 55.7224 31.5548 55.7589 31.5913C55.7954 31.6278 55.8241 31.6713 55.8432 31.7193C55.8623 31.7672 55.8715 31.8185 55.8701 31.8701V37.3401C55.8715 37.3917 55.8623 37.443 55.8432 37.491C55.8241 37.5389 55.7954 37.5825 55.7589 37.619C55.7224 37.6554 55.6789 37.6841 55.6309 37.7032C55.583 37.7223 55.5317 37.7315 55.4801 37.7301Z" fill="#E6E6E6"/>
<path d="M58.2102 35.0001H52.7502C52.693 35.0092 52.6346 35.0058 52.5789 34.9902C52.5232 34.9745 52.4715 34.9469 52.4275 34.9094C52.3835 34.8718 52.3481 34.8252 52.3239 34.7727C52.2997 34.7201 52.2871 34.6629 52.2871 34.6051C52.2871 34.5472 52.2997 34.49 52.3239 34.4375C52.3481 34.385 52.3835 34.3383 52.4275 34.3008C52.4715 34.2632 52.5232 34.2357 52.5789 34.22C52.6346 34.2043 52.693 34.201 52.7502 34.2101H58.2102C58.2673 34.201 58.3257 34.2043 58.3814 34.22C58.4371 34.2357 58.4888 34.2632 58.5328 34.3008C58.5768 34.3383 58.6122 34.385 58.6364 34.4375C58.6606 34.49 58.6732 34.5472 58.6732 34.6051C58.6732 34.6629 58.6606 34.7201 58.6364 34.7727C58.6122 34.8252 58.5768 34.8718 58.5328 34.9094C58.4888 34.9469 58.4371 34.9745 58.3814 34.9902C58.3257 35.0058 58.2673 35.0092 58.2102 35.0001Z" fill="#E6E6E6"/>
<path d="M37.3804 7.51C37.3283 7.51002 37.2768 7.49961 37.2288 7.47939C37.1808 7.45916 37.1373 7.42954 37.101 7.39226C37.0646 7.35498 37.0361 7.3108 37.0171 7.26232C36.9981 7.21384 36.989 7.16205 36.9904 7.11V1.65C36.989 1.59795 36.9981 1.54616 37.0171 1.49768C37.0361 1.4492 37.0646 1.40502 37.101 1.36774C37.1373 1.33046 37.1808 1.30084 37.2288 1.28061C37.2768 1.26039 37.3283 1.24998 37.3804 1.25C37.4864 1.25 37.5882 1.29214 37.6632 1.36716C37.7382 1.44217 37.7804 1.54391 37.7804 1.65V7.11C37.7804 7.21609 37.7382 7.31783 37.6632 7.39284C37.5882 7.46786 37.4864 7.51 37.3804 7.51Z" fill="#E6E6E6"/>
<path d="M40.11 4.76998H34.65C34.598 4.77132 34.5462 4.76221 34.4977 4.74321C34.4492 4.72421 34.405 4.6957 34.3677 4.65935C34.3305 4.623 34.3008 4.57955 34.2806 4.53157C34.2604 4.48359 34.25 4.43205 34.25 4.37998C34.25 4.27389 34.2921 4.17215 34.3672 4.09714C34.4422 4.02212 34.5439 3.97998 34.65 3.97998H40.11C40.2161 3.97998 40.3178 4.02212 40.3928 4.09714C40.4679 4.17215 40.51 4.27389 40.51 4.37998C40.51 4.43205 40.4996 4.48359 40.4794 4.53157C40.4592 4.57955 40.4295 4.623 40.3923 4.65935C40.355 4.6957 40.3108 4.72421 40.2623 4.74321C40.2138 4.76221 40.1621 4.77132 40.11 4.76998Z" fill="#E6E6E6"/>
<path d="M69.1397 96.73H14.4597C13.9213 96.693 13.417 96.4531 13.0487 96.0586C12.6804 95.6642 12.4756 95.1446 12.4756 94.605C12.4756 94.0653 12.6804 93.5458 13.0487 93.1513C13.417 92.7569 13.9213 92.5169 14.4597 92.48H69.1397C69.6781 92.5169 70.1824 92.7569 70.5507 93.1513C70.919 93.5458 71.1239 94.0653 71.1239 94.605C71.1239 95.1446 70.919 95.6642 70.5507 96.0586C70.1824 96.4531 69.6781 96.693 69.1397 96.73ZM14.4597 93.27C14.1256 93.2989 13.8145 93.4521 13.5878 93.6993C13.3611 93.9464 13.2354 94.2696 13.2354 94.605C13.2354 94.9404 13.3611 95.2635 13.5878 95.5107C13.8145 95.7579 14.1256 95.911 14.4597 95.94H69.1397C69.4738 95.911 69.785 95.7579 70.0116 95.5107C70.2383 95.2635 70.3641 94.9404 70.3641 94.605C70.3641 94.2696 70.2383 93.9464 70.0116 93.6993C69.785 93.4521 69.4738 93.2989 69.1397 93.27H14.4597Z" fill="#E6E6E6"/>
<path d="M93.6501 64.2998H73.4401C73.3264 64.2998 73.2137 64.2773 73.1087 64.2334C73.0037 64.1896 72.9084 64.1253 72.8285 64.0444C72.7485 63.9635 72.6853 63.8675 72.6427 63.762C72.6001 63.6565 72.5788 63.5436 72.5801 63.4298C72.5801 63.2017 72.6707 62.983 72.832 62.8217C72.9933 62.6604 73.2121 62.5698 73.4401 62.5698H93.6501C93.8792 62.5698 94.0989 62.6601 94.2618 62.8211C94.4247 62.9821 94.5175 63.2008 94.5201 63.4298C94.5201 63.6606 94.4285 63.8818 94.2653 64.045C94.1022 64.2082 93.8809 64.2998 93.6501 64.2998Z" fill="#E6E6E6"/>
<path d="M48.8202 81.0498H33.3602C33.1312 81.0498 32.9114 80.9596 32.7486 80.7986C32.5857 80.6376 32.4929 80.4188 32.4902 80.1898C32.4902 80.0756 32.5127 79.9624 32.5565 79.8569C32.6002 79.7513 32.6643 79.6554 32.745 79.5746C32.8258 79.4939 32.9217 79.4298 33.0273 79.386C33.1329 79.3423 33.246 79.3198 33.3602 79.3198H48.8202C49.0492 79.3225 49.268 79.4153 49.429 79.5781C49.59 79.741 49.6802 79.9608 49.6802 80.1898C49.6776 80.4171 49.5862 80.6343 49.4255 80.7951C49.2648 80.9558 49.0475 81.0472 48.8202 81.0498Z" fill="#E6E6E6"/>
<path d="M40.9299 70.4001C40.861 70.4001 40.7948 70.3727 40.7461 70.324C40.6973 70.2752 40.6699 70.2091 40.6699 70.1401V64.4001C40.6699 64.3312 40.6973 64.2651 40.7461 64.2163C40.7948 64.1675 40.861 64.1401 40.9299 64.1401H46.6399C46.7158 64.1428 46.7876 64.1751 46.8399 64.2301C46.8864 64.2786 46.9123 64.343 46.9123 64.4101C46.9123 64.4772 46.8864 64.5417 46.8399 64.5901L41.1299 70.3301C41.1034 70.3552 41.0718 70.3744 41.0374 70.3864C41.0029 70.3985 40.9663 70.4032 40.9299 70.4001ZM41.1899 64.6601V69.5201L45.9999 64.6601H41.1899Z" fill="#E6E6E6"/>
<path d="M40.9303 70.3998H23.7903C23.7213 70.3998 23.6552 70.3724 23.6064 70.3237C23.5577 70.2749 23.5303 70.2088 23.5303 70.1398V39.0598C23.5303 38.9909 23.5577 38.9247 23.6064 38.876C23.6552 38.8272 23.7213 38.7998 23.7903 38.7998H46.6403C46.7092 38.7998 46.7754 38.8272 46.8241 38.876C46.8729 38.9247 46.9003 38.9909 46.9003 39.0598V64.3998C46.9003 64.4688 46.8729 64.5349 46.8241 64.5837C46.7754 64.6324 46.7092 64.6598 46.6403 64.6598H41.1903V70.1398C41.1903 70.2088 41.1629 70.2749 41.1141 70.3237C41.0654 70.3724 40.9992 70.3998 40.9303 70.3998ZM24.0503 69.8798H40.6703V64.3998C40.6703 64.3309 40.6977 64.2647 40.7464 64.216C40.7952 64.1672 40.8613 64.1398 40.9303 64.1398H46.3803V39.3198H24.0503V69.8798ZM30.1803 64.4398C29.9792 64.4362 29.7822 64.3821 29.6075 64.2825C29.4327 64.1829 29.2858 64.041 29.1803 63.8698L28.3603 62.5098C28.2002 62.2388 28.1501 61.9167 28.2203 61.6098C28.2576 61.4585 28.3246 61.3161 28.4172 61.1908C28.5099 61.0655 28.6265 60.9598 28.7603 60.8798L38.3203 55.0898C38.3719 55.0707 38.4287 55.0707 38.4803 55.0898L41.1503 55.3698C41.1891 55.3736 41.2265 55.3864 41.2595 55.4073C41.2925 55.4281 41.3202 55.4564 41.3403 55.4898C41.3551 55.5246 41.3628 55.562 41.3628 55.5998C41.3628 55.6376 41.3551 55.675 41.3403 55.7098L40.4503 58.3698C40.4292 58.4269 40.3907 58.4758 40.3403 58.5098L31.6003 63.7998L30.8103 64.2798C30.6205 64.3937 30.4014 64.4493 30.1803 64.4398ZM38.5003 55.5798L29.0003 61.3298C28.926 61.3729 28.8611 61.4306 28.8096 61.4993C28.7581 61.568 28.7209 61.6464 28.7003 61.7298C28.6569 61.9025 28.682 62.0852 28.7703 62.2398L29.6003 63.5998C29.6446 63.675 29.7034 63.7407 29.7732 63.7931C29.8431 63.8454 29.9226 63.8834 30.0073 63.9048C30.0919 63.9262 30.1799 63.9306 30.2663 63.9177C30.3526 63.9048 30.4356 63.8749 30.5103 63.8298L31.3203 63.3298L40.0003 58.0798L40.7603 55.8198L38.5003 55.5798Z" fill="#E6E6E6"/>
<path d="M40.2199 58.5101C40.1757 58.5123 40.1318 58.5023 40.0929 58.4811C40.0541 58.4599 40.0219 58.4284 39.9999 58.3901L38.2099 55.4501C38.1831 55.4083 38.1689 55.3597 38.1689 55.3101C38.1689 55.2605 38.1831 55.2119 38.2099 55.1701C38.2356 55.1312 38.2717 55.1003 38.3142 55.0808C38.3566 55.0614 38.4036 55.0542 38.4499 55.0601L41.1199 55.3401C41.1587 55.3439 41.1961 55.3567 41.2291 55.3776C41.2621 55.3984 41.2897 55.4267 41.3099 55.4601C41.3247 55.4949 41.3324 55.5323 41.3324 55.5701C41.3324 55.6079 41.3247 55.6453 41.3099 55.6801L40.4199 58.3401C40.4048 58.3856 40.377 58.4258 40.3398 58.4559C40.3026 58.4861 40.2575 58.5049 40.2099 58.5101H40.2199ZM38.9299 55.6301L40.1499 57.6301L40.7599 55.8101L38.9299 55.6301Z" fill="#E6E6E6"/>
<path d="M31.4805 63.81C31.434 63.8108 31.3882 63.7992 31.3477 63.7763C31.3073 63.7535 31.2737 63.7202 31.2505 63.68L30.3605 62.22C30.3386 62.1783 30.3271 62.132 30.3271 62.085C30.3271 62.0379 30.3386 61.9916 30.3605 61.95C30.3931 61.906 30.4338 61.8687 30.4805 61.84L39.2005 56.56C39.2656 56.5399 39.3353 56.5399 39.4005 56.56C39.434 56.5679 39.4655 56.5826 39.493 56.6033C39.5205 56.6239 39.5435 56.65 39.5605 56.68L40.4505 58.15C40.4685 58.1794 40.4805 58.2122 40.4858 58.2463C40.491 58.2805 40.4894 58.3153 40.481 58.3488C40.4726 58.3824 40.4577 58.4139 40.437 58.4415C40.4163 58.4692 40.3903 58.4925 40.3605 58.51L31.6205 63.8C31.5762 63.8185 31.527 63.822 31.4805 63.81ZM30.9405 62.17L31.5605 63.17L39.8605 58.17L39.2405 57.17L30.9405 62.17Z" fill="#E6E6E6"/>
<path d="M30.5801 62.3399C30.5363 62.34 30.4932 62.3291 30.4547 62.3081C30.4162 62.2872 30.3837 62.2568 30.3601 62.2199L29.4701 60.7499C29.4553 60.6942 29.4553 60.6356 29.4701 60.5799C29.4759 60.5416 29.4896 60.505 29.5102 60.4723C29.5309 60.4396 29.5581 60.4115 29.5901 60.3899L38.3401 55.0899C38.4003 55.056 38.4711 55.0465 38.538 55.0632C38.605 55.08 38.663 55.1217 38.7001 55.1799L39.5901 56.6499C39.6045 56.6813 39.6119 56.7154 39.6119 56.7499C39.6119 56.7844 39.6045 56.8185 39.5901 56.8499C39.5689 56.915 39.5267 56.9713 39.4701 57.0099L30.7201 62.2999C30.679 62.328 30.6299 62.3421 30.5801 62.3399ZM30.0501 60.6999L30.6701 61.6999L38.9701 56.6999L38.3501 55.6999L30.0501 60.6999Z" fill="#E6E6E6"/>
<path d="M30.1805 64.4401C29.9794 64.4365 29.7824 64.3824 29.6076 64.2828C29.4329 64.1832 29.286 64.0413 29.1805 63.8701L28.3605 62.5101C28.2003 62.2391 28.1502 61.917 28.2204 61.6101C28.2578 61.4588 28.3247 61.3164 28.4174 61.1911C28.5101 61.0658 28.6267 60.9601 28.7605 60.8801L29.5704 60.3901C29.617 60.3519 29.6753 60.3311 29.7355 60.3311C29.7956 60.3311 29.8539 60.3519 29.9004 60.3901L31.6704 63.3201C31.6889 63.349 31.7015 63.3812 31.7075 63.415C31.7135 63.4487 31.7128 63.4833 31.7053 63.5168C31.6979 63.5502 31.6839 63.5819 31.6642 63.6099C31.6445 63.6379 31.6194 63.6618 31.5905 63.6801L30.7705 64.1801C30.6032 64.3222 30.3982 64.4126 30.1805 64.4401ZM29.6005 61.0001L29.0105 61.3601C28.9362 61.4032 28.8713 61.4609 28.8198 61.5296C28.7682 61.5983 28.7311 61.6767 28.7104 61.7601C28.6671 61.9328 28.6922 62.1155 28.7805 62.2701L29.6105 63.6301C29.6547 63.7053 29.7135 63.771 29.7834 63.8234C29.8533 63.8757 29.9328 63.9137 30.0174 63.9351C30.1021 63.9565 30.1901 63.9609 30.2765 63.948C30.3628 63.9351 30.4457 63.9053 30.5205 63.8601L31.1205 63.4901L30.4204 62.3601L29.6005 61.0001Z" fill="#E6E6E6"/>
<path d="M40.9303 70.3998H23.7903C23.7213 70.3998 23.6552 70.3724 23.6064 70.3237C23.5577 70.2749 23.5303 70.2088 23.5303 70.1398V39.0598C23.5303 38.9909 23.5577 38.9247 23.6064 38.876C23.6552 38.8272 23.7213 38.7998 23.7903 38.7998H46.6403C46.7092 38.7998 46.7754 38.8272 46.8241 38.876C46.8729 38.9247 46.9003 38.9909 46.9003 39.0598V64.3998C46.9003 64.4688 46.8729 64.5349 46.8241 64.5837C46.7754 64.6324 46.7092 64.6598 46.6403 64.6598H41.1903V70.1398C41.1903 70.2088 41.1629 70.2749 41.1141 70.3237C41.0654 70.3724 40.9992 70.3998 40.9303 70.3998ZM24.0503 69.8798H40.6703V64.3998C40.6703 64.3309 40.6977 64.2647 40.7464 64.216C40.7952 64.1672 40.8613 64.1398 40.9303 64.1398H46.3803V39.3198H24.0503V69.8798Z" fill="#E6E6E6"/>
<path d="M40.9301 70.4001C40.8633 70.4007 40.7989 70.3757 40.7501 70.3301C40.703 70.28 40.6768 70.2138 40.6768 70.1451C40.6768 70.0763 40.703 70.0102 40.7501 69.9601L46.4601 64.2301C46.5102 64.183 46.5763 64.1567 46.6451 64.1567C46.7139 64.1567 46.78 64.183 46.8301 64.2301C46.8543 64.2534 46.8735 64.2814 46.8867 64.3123C46.8998 64.3432 46.9066 64.3765 46.9066 64.4101C46.9066 64.4437 46.8998 64.4769 46.8867 64.5079C46.8735 64.5388 46.8543 64.5668 46.8301 64.5901L41.1201 70.3301C41.0947 70.3539 41.0648 70.3723 41.0322 70.3843C40.9996 70.3964 40.9648 70.4017 40.9301 70.4001Z" fill="#E6E6E6"/>
<path d="M42.7699 45.0498H27.3899C27.3209 45.0498 27.2548 45.0224 27.206 44.9736C27.1573 44.9249 27.1299 44.8587 27.1299 44.7898C27.1299 44.7208 27.1573 44.6547 27.206 44.6059C27.2548 44.5572 27.3209 44.5298 27.3899 44.5298H42.7699C42.8388 44.5298 42.905 44.5572 42.9537 44.6059C43.0025 44.6547 43.0299 44.7208 43.0299 44.7898C43.0299 44.8587 43.0025 44.9249 42.9537 44.9736C42.905 45.0224 42.8388 45.0498 42.7699 45.0498Z" fill="#E6E6E6"/>
<path d="M42.7701 49.1799H27.3901C27.3211 49.1799 27.255 49.1525 27.2062 49.1037C27.1575 49.055 27.1301 48.9888 27.1301 48.9199C27.1287 48.8854 27.1344 48.8509 27.147 48.8187C27.1596 48.7866 27.1787 48.7573 27.2031 48.7329C27.2275 48.7085 27.2568 48.6894 27.2889 48.6768C27.3211 48.6642 27.3556 48.6585 27.3901 48.6599H42.7701C42.8046 48.6585 42.8391 48.6642 42.8712 48.6768C42.9034 48.6894 42.9326 48.7085 42.9571 48.7329C42.9815 48.7573 43.0006 48.7866 43.0132 48.8187C43.0257 48.8509 43.0315 48.8854 43.0301 48.9199C43.0301 48.9888 43.0027 49.055 42.9539 49.1037C42.9052 49.1525 42.839 49.1799 42.7701 49.1799Z" fill="#E6E6E6"/>
<path d="M42.7699 53.2998H27.3899C27.3209 53.2998 27.2548 53.2724 27.206 53.2236C27.1573 53.1749 27.1299 53.1087 27.1299 53.0398C27.1299 52.9708 27.1573 52.9047 27.206 52.8559C27.2548 52.8072 27.3209 52.7798 27.3899 52.7798H42.7699C42.8388 52.7798 42.905 52.8072 42.9537 52.8559C43.0025 52.9047 43.0299 52.9708 43.0299 53.0398C43.0299 53.1087 43.0025 53.1749 42.9537 53.2236C42.905 53.2724 42.8388 53.2998 42.7699 53.2998Z" fill="#E6E6E6"/>
<path d="M30.1805 64.44C29.9794 64.4365 29.7824 64.3824 29.6076 64.2828C29.4329 64.1832 29.286 64.0412 29.1805 63.87L28.3605 62.51C28.2003 62.239 28.1502 61.9169 28.2204 61.61C28.2578 61.4587 28.3247 61.3163 28.4174 61.191C28.5101 61.0657 28.6267 60.96 28.7605 60.88L38.3204 55.09C38.3721 55.0709 38.4288 55.0709 38.4804 55.09L41.1505 55.37C41.1893 55.3738 41.2267 55.3867 41.2597 55.4075C41.2927 55.4283 41.3203 55.4566 41.3405 55.49C41.3553 55.5248 41.363 55.5622 41.363 55.6C41.363 55.6379 41.3553 55.6753 41.3405 55.71L40.4505 58.37C40.4294 58.4271 40.3909 58.4761 40.3405 58.51L31.6005 63.8L30.8104 64.28C30.6207 64.3939 30.4016 64.4496 30.1805 64.44ZM38.5005 55.58L29.0005 61.33C28.9262 61.3732 28.8613 61.4308 28.8098 61.4995C28.7582 61.5683 28.7211 61.6467 28.7005 61.73C28.6571 61.9027 28.6822 62.0854 28.7705 62.24L29.6005 63.6C29.6447 63.6753 29.7035 63.741 29.7734 63.7933C29.8432 63.8457 29.9228 63.8836 30.0074 63.905C30.0921 63.9264 30.1801 63.9308 30.2665 63.9179C30.3528 63.9051 30.4357 63.8752 30.5105 63.83L31.3204 63.33L40.0005 58.08L40.7604 55.82L38.5005 55.58Z" fill="#E6E6E6"/>
<path d="M31.4803 63.8102C31.4179 63.813 31.357 63.7915 31.3103 63.7502C31.2824 63.735 31.261 63.7101 31.2503 63.6802L29.4703 60.7502C29.4364 60.69 29.4269 60.6192 29.4436 60.5523C29.4603 60.4853 29.5021 60.4273 29.5603 60.3902C29.6204 60.3563 29.6912 60.3468 29.7582 60.3635C29.8251 60.3803 29.8831 60.422 29.9203 60.4802L31.6803 63.3902C31.7129 63.4372 31.7303 63.493 31.7303 63.5502C31.7303 63.6174 31.7043 63.6821 31.6577 63.7306C31.6111 63.7791 31.5475 63.8076 31.4803 63.8102Z" fill="#E6E6E6"/>
<path d="M40.2202 58.5101C40.1761 58.5123 40.1322 58.5023 40.0933 58.4811C40.0545 58.4599 40.0223 58.4285 40.0002 58.3901L38.2102 55.4501C38.1925 55.4206 38.1808 55.3878 38.1757 55.3537C38.1706 55.3197 38.1723 55.2849 38.1807 55.2515C38.189 55.2181 38.2039 55.1866 38.2244 55.1589C38.2449 55.1312 38.2707 55.1079 38.3002 55.0901C38.3298 55.0724 38.3625 55.0607 38.3966 55.0556C38.4307 55.0505 38.4655 55.0522 38.4989 55.0606C38.5323 55.0689 38.5638 55.0838 38.5915 55.1043C38.6191 55.1248 38.6425 55.1506 38.6602 55.1801L40.4402 58.1201C40.4583 58.1496 40.4703 58.1823 40.4755 58.2165C40.4808 58.2506 40.4792 58.2855 40.4708 58.319C40.4624 58.3525 40.4474 58.384 40.4267 58.4117C40.406 58.4394 40.38 58.4626 40.3502 58.4801C40.3096 58.4994 40.2652 58.5097 40.2202 58.5101Z" fill="#E6E6E6"/>
<path d="M30.5799 62.3401C30.5361 62.3403 30.493 62.3293 30.4545 62.3084C30.416 62.2874 30.3835 62.257 30.3599 62.2201C30.3261 62.16 30.3165 62.0891 30.3333 62.0222C30.35 61.9552 30.3917 61.8972 30.4499 61.8601L39.1899 56.5601C39.25 56.5263 39.3209 56.5167 39.3878 56.5335C39.4548 56.5502 39.5128 56.5919 39.5499 56.6501C39.5694 56.6791 39.5826 56.7119 39.5886 56.7464C39.5946 56.7808 39.5934 56.8162 39.5849 56.8501C39.5764 56.884 39.5609 56.9158 39.5394 56.9434C39.5178 56.9709 39.4908 56.9937 39.4599 57.0101L30.7199 62.3001C30.6788 62.3282 30.6297 62.3423 30.5799 62.3401Z" fill="#E6E6E6"/>
<path d="M273.3 77.9001C272.872 77.9001 272.455 77.7734 272.1 77.536C271.744 77.2987 271.468 76.9614 271.304 76.5667C271.141 76.172 271.098 75.7377 271.181 75.3187C271.265 74.8997 271.47 74.5148 271.772 74.2127C272.074 73.9106 272.459 73.7049 272.878 73.6216C273.297 73.5382 273.732 73.581 274.126 73.7445C274.521 73.908 274.858 74.1848 275.096 74.54C275.333 74.8953 275.46 75.3129 275.46 75.7401C275.46 76.3129 275.232 76.8623 274.827 77.2674C274.422 77.6725 273.872 77.9001 273.3 77.9001ZM273.3 74.3701C273.029 74.3701 272.764 74.4504 272.539 74.601C272.313 74.7515 272.138 74.9655 272.034 75.2158C271.93 75.4661 271.903 75.7416 271.956 76.0073C272.009 76.2731 272.139 76.5172 272.331 76.7088C272.523 76.9004 272.767 77.0309 273.032 77.0838C273.298 77.1366 273.574 77.1095 273.824 77.0058C274.074 76.9021 274.288 76.7265 274.439 76.5012C274.589 76.2759 274.67 76.011 274.67 75.7401C274.67 75.5602 274.634 75.382 274.565 75.2158C274.496 75.0496 274.396 74.8986 274.268 74.7713C274.141 74.6441 273.99 74.5432 273.824 74.4744C273.658 74.4055 273.48 74.3701 273.3 74.3701Z" fill="#E6E6E6"/>
<path d="M362.2 106.94C361.773 106.94 361.355 106.813 361 106.576C360.645 106.339 360.368 106.001 360.204 105.607C360.041 105.212 359.998 104.778 360.082 104.359C360.165 103.94 360.371 103.555 360.673 103.253C360.975 102.951 361.36 102.745 361.779 102.662C362.198 102.578 362.632 102.621 363.027 102.785C363.421 102.948 363.759 103.225 363.996 103.58C364.233 103.935 364.36 104.353 364.36 104.78C364.36 105.353 364.132 105.902 363.727 106.307C363.322 106.713 362.773 106.94 362.2 106.94ZM362.2 103.41C361.929 103.41 361.664 103.49 361.439 103.641C361.214 103.792 361.038 104.006 360.934 104.256C360.831 104.506 360.803 104.782 360.856 105.047C360.909 105.313 361.04 105.557 361.231 105.749C361.423 105.94 361.667 106.071 361.933 106.124C362.199 106.177 362.474 106.15 362.724 106.046C362.975 105.942 363.189 105.767 363.339 105.541C363.49 105.316 363.57 105.051 363.57 104.78C363.57 104.417 363.426 104.068 363.169 103.811C362.912 103.554 362.563 103.41 362.2 103.41Z" fill="#E6E6E6"/>
<path d="M338.85 128.71C338.798 128.712 338.746 128.702 338.698 128.683C338.649 128.664 338.605 128.636 338.568 128.6C338.531 128.563 338.501 128.52 338.481 128.472C338.461 128.424 338.45 128.372 338.45 128.32V122.85C338.45 122.744 338.492 122.642 338.567 122.567C338.642 122.492 338.744 122.45 338.85 122.45C338.956 122.45 339.058 122.492 339.133 122.567C339.208 122.642 339.25 122.744 339.25 122.85V128.32C339.25 128.372 339.24 128.424 339.22 128.472C339.199 128.52 339.17 128.563 339.132 128.6C339.095 128.636 339.051 128.664 339.003 128.683C338.954 128.702 338.902 128.712 338.85 128.71Z" fill="#E6E6E6"/>
<path d="M341.58 126H336.12C336.063 126.009 336.005 126.006 335.949 125.99C335.893 125.975 335.842 125.947 335.798 125.909C335.754 125.872 335.718 125.825 335.694 125.773C335.67 125.72 335.657 125.663 335.657 125.605C335.657 125.547 335.67 125.49 335.694 125.438C335.718 125.385 335.754 125.338 335.798 125.301C335.842 125.263 335.893 125.236 335.949 125.22C336.005 125.204 336.063 125.201 336.12 125.21H341.58C341.637 125.201 341.696 125.204 341.752 125.22C341.807 125.236 341.859 125.263 341.903 125.301C341.947 125.338 341.982 125.385 342.007 125.438C342.031 125.49 342.043 125.547 342.043 125.605C342.043 125.663 342.031 125.72 342.007 125.773C341.982 125.825 341.947 125.872 341.903 125.909C341.859 125.947 341.807 125.975 341.752 125.99C341.696 126.006 341.637 126.009 341.58 126Z" fill="#E6E6E6"/>
<path d="M326.62 49.1799C326.514 49.1799 326.412 49.1378 326.337 49.0628C326.262 48.9878 326.22 48.886 326.22 48.7799V43.3199C326.22 43.2138 326.262 43.1121 326.337 43.0371C326.412 42.9621 326.514 42.9199 326.62 42.9199C326.672 42.9199 326.723 42.9303 326.771 42.9505C326.819 42.9708 326.863 43.0004 326.899 43.0377C326.935 43.0749 326.964 43.1191 326.983 43.1676C327.002 43.2161 327.011 43.2679 327.01 43.3199V48.7799C327.011 48.832 327.002 48.8838 326.983 48.9322C326.964 48.9807 326.935 49.0249 326.899 49.0622C326.863 49.0995 326.819 49.1291 326.771 49.1493C326.723 49.1695 326.672 49.1799 326.62 49.1799Z" fill="#E6E6E6"/>
<path d="M329.35 46.4399H323.88C323.777 46.4399 323.678 46.3988 323.604 46.3257C323.531 46.2525 323.49 46.1533 323.49 46.0499C323.49 45.9455 323.531 45.8453 323.604 45.7705C323.677 45.6958 323.776 45.6525 323.88 45.6499H329.35C329.402 45.6499 329.454 45.6603 329.502 45.6805C329.55 45.7007 329.593 45.7304 329.63 45.7676C329.666 45.8049 329.694 45.8491 329.713 45.8976C329.732 45.9461 329.742 45.9978 329.74 46.0499C329.742 46.1015 329.732 46.1528 329.713 46.2008C329.694 46.2487 329.666 46.2922 329.629 46.3287C329.593 46.3652 329.549 46.3939 329.501 46.413C329.453 46.4321 329.402 46.4413 329.35 46.4399Z" fill="#E6E6E6"/>
<path d="M308.52 18.9999C308.414 18.9999 308.312 18.9578 308.237 18.8828C308.162 18.8078 308.12 18.706 308.12 18.5999V13.0899C308.12 12.9839 308.162 12.8821 308.237 12.8071C308.312 12.7321 308.414 12.6899 308.52 12.6899C308.626 12.6899 308.728 12.7321 308.803 12.8071C308.878 12.8821 308.92 12.9839 308.92 13.0899V18.5499C308.927 18.6065 308.922 18.6639 308.905 18.7184C308.888 18.7729 308.86 18.8231 308.822 18.8657C308.784 18.9083 308.738 18.9423 308.686 18.9655C308.634 18.9886 308.577 19.0004 308.52 18.9999Z" fill="#E6E6E6"/>
<path d="M311.25 16.2198H305.79C305.684 16.2198 305.582 16.1777 305.507 16.1027C305.432 16.0276 305.39 15.9259 305.39 15.8198C305.39 15.7677 305.4 15.7162 305.42 15.6682C305.44 15.6202 305.47 15.5768 305.507 15.5404C305.545 15.5041 305.589 15.4756 305.637 15.4566C305.686 15.4376 305.738 15.4285 305.79 15.4298H311.25C311.302 15.4285 311.353 15.4376 311.402 15.4566C311.45 15.4756 311.495 15.5041 311.532 15.5404C311.569 15.5768 311.599 15.6202 311.619 15.6682C311.639 15.7162 311.65 15.7677 311.65 15.8198C311.65 15.9259 311.607 16.0276 311.532 16.1027C311.457 16.1777 311.356 16.2198 311.25 16.2198Z" fill="#E6E6E6"/>
<path d="M340.28 108.18H285.6C285.035 108.18 284.493 107.956 284.094 107.556C283.694 107.157 283.47 106.615 283.47 106.05C283.47 105.485 283.694 104.943 284.094 104.544C284.493 104.144 285.035 103.92 285.6 103.92H340.28C340.845 103.92 341.386 104.144 341.786 104.544C342.185 104.943 342.41 105.485 342.41 106.05C342.41 106.615 342.185 107.157 341.786 107.556C341.386 107.956 340.845 108.18 340.28 108.18ZM285.6 104.72C285.247 104.72 284.909 104.86 284.659 105.109C284.41 105.359 284.27 105.697 284.27 106.05C284.27 106.403 284.41 106.741 284.659 106.99C284.909 107.24 285.247 107.38 285.6 107.38H340.28C340.632 107.38 340.971 107.24 341.22 106.99C341.47 106.741 341.61 106.403 341.61 106.05C341.61 105.697 341.47 105.359 341.22 105.109C340.971 104.86 340.632 104.72 340.28 104.72H285.6Z" fill="#E6E6E6"/>
<path d="M364.79 75.7398H344.58C344.466 75.7411 344.354 75.7198 344.249 75.677C344.144 75.6343 344.049 75.571 343.969 75.4909C343.889 75.4107 343.825 75.3154 343.783 75.2104C343.74 75.1055 343.718 74.9931 343.72 74.8798C343.718 74.766 343.74 74.6531 343.782 74.5476C343.825 74.4421 343.888 74.3461 343.968 74.2652C344.048 74.1843 344.143 74.12 344.248 74.0762C344.353 74.0323 344.466 74.0098 344.58 74.0098H364.79C365.021 74.0098 365.242 74.1014 365.405 74.2646C365.568 74.4277 365.66 74.649 365.66 74.8798C365.66 74.9935 365.637 75.1062 365.593 75.2112C365.55 75.3162 365.485 75.4114 365.404 75.4914C365.323 75.5714 365.227 75.6346 365.122 75.6772C365.016 75.7198 364.904 75.7411 364.79 75.7398Z" fill="#E6E6E6"/>
<path d="M320 92.4898H304.5C304.386 92.4911 304.273 92.4698 304.168 92.4272C304.062 92.3846 303.966 92.3214 303.885 92.2414C303.804 92.1614 303.74 92.0662 303.696 91.9612C303.652 91.8562 303.63 91.7435 303.63 91.6298C303.63 91.399 303.722 91.1777 303.885 91.0146C304.048 90.8514 304.269 90.7598 304.5 90.7598H320C320.229 90.7624 320.448 90.8552 320.609 91.0181C320.77 91.181 320.86 91.4007 320.86 91.6298C320.86 91.8578 320.769 92.0766 320.608 92.2379C320.447 92.3992 320.228 92.4898 320 92.4898Z" fill="#E6E6E6"/>
<path d="M312.27 149.78H287.27C286.954 149.78 286.652 149.655 286.429 149.431C286.205 149.208 286.08 148.906 286.08 148.59V131.72C286.08 131.403 286.205 131.1 286.428 130.875C286.651 130.65 286.954 130.523 287.27 130.52H312.27C312.427 130.52 312.583 130.551 312.728 130.612C312.873 130.672 313.004 130.761 313.115 130.872C313.226 130.984 313.313 131.116 313.372 131.262C313.432 131.407 313.461 131.563 313.46 131.72V148.59C313.46 148.906 313.335 149.208 313.112 149.431C312.888 149.655 312.586 149.78 312.27 149.78ZM287.27 130.97C287.073 130.973 286.885 131.053 286.746 131.193C286.608 131.334 286.53 131.523 286.53 131.72V148.59C286.53 148.786 286.608 148.975 286.747 149.113C286.886 149.252 287.074 149.33 287.27 149.33H312.27C312.466 149.33 312.655 149.252 312.793 149.113C312.932 148.975 313.01 148.786 313.01 148.59V131.72C313.01 131.523 312.932 131.334 312.794 131.193C312.655 131.053 312.467 130.973 312.27 130.97H287.27Z" fill="#E6E6E6"/>
<path d="M313.24 134.42H286.29C286.257 134.427 286.222 134.426 286.189 134.418C286.156 134.41 286.125 134.395 286.098 134.374C286.071 134.352 286.05 134.325 286.035 134.294C286.02 134.263 286.013 134.229 286.013 134.195C286.013 134.161 286.02 134.127 286.035 134.096C286.05 134.065 286.071 134.038 286.098 134.016C286.125 133.995 286.156 133.979 286.189 133.971C286.222 133.963 286.257 133.963 286.29 133.97H313.24C313.299 133.97 313.355 133.993 313.396 134.034C313.437 134.076 313.46 134.131 313.46 134.19C313.462 134.22 313.457 134.249 313.447 134.277C313.436 134.305 313.42 134.33 313.4 134.352C313.379 134.373 313.354 134.391 313.327 134.402C313.3 134.414 313.27 134.42 313.24 134.42Z" fill="#E6E6E6"/>
<path d="M288.85 133.41H287.42C287.391 133.41 287.361 133.404 287.334 133.392C287.306 133.38 287.282 133.363 287.261 133.342C287.241 133.32 287.225 133.295 287.214 133.267C287.204 133.239 287.199 133.21 287.2 133.18V131.76C287.199 131.73 287.204 131.7 287.214 131.673C287.225 131.645 287.241 131.619 287.261 131.598C287.282 131.576 287.306 131.559 287.334 131.547C287.361 131.536 287.391 131.53 287.42 131.53H288.85C288.88 131.53 288.91 131.536 288.937 131.547C288.964 131.559 288.989 131.576 289.01 131.598C289.03 131.619 289.046 131.645 289.057 131.673C289.067 131.7 289.072 131.73 289.07 131.76V133.18C289.072 133.21 289.067 133.239 289.057 133.267C289.046 133.295 289.03 133.32 289.01 133.342C288.989 133.363 288.964 133.38 288.937 133.392C288.91 133.404 288.88 133.41 288.85 133.41ZM287.65 132.96H288.65V131.96H287.65V132.96Z" fill="#E6E6E6"/>
<path d="M291.62 133.41H290.2C290.139 133.41 290.08 133.386 290.037 133.342C289.994 133.299 289.97 133.241 289.97 133.18V131.76C289.97 131.699 289.994 131.64 290.037 131.597C290.08 131.554 290.139 131.53 290.2 131.53H291.62C291.65 131.53 291.68 131.536 291.708 131.547C291.736 131.559 291.761 131.576 291.782 131.597C291.804 131.619 291.821 131.644 291.832 131.672C291.844 131.7 291.85 131.73 291.85 131.76V133.18C291.85 133.21 291.844 133.24 291.832 133.268C291.821 133.296 291.804 133.321 291.782 133.342C291.761 133.364 291.736 133.381 291.708 133.392C291.68 133.404 291.65 133.41 291.62 133.41ZM290.42 132.96H291.42V131.96H290.42V132.96Z" fill="#E6E6E6"/>
<path d="M294.39 133.41H293C292.939 133.41 292.88 133.386 292.837 133.342C292.794 133.299 292.77 133.241 292.77 133.18V131.76C292.77 131.699 292.794 131.64 292.837 131.597C292.88 131.554 292.939 131.53 293 131.53H294.42C294.481 131.53 294.539 131.554 294.582 131.597C294.625 131.64 294.65 131.699 294.65 131.76V133.18C294.65 133.213 294.643 133.245 294.63 133.275C294.616 133.305 294.597 133.332 294.572 133.354C294.547 133.376 294.518 133.392 294.487 133.402C294.455 133.411 294.422 133.414 294.39 133.41ZM293.19 132.96H294.19V131.96H293.19V132.96Z" fill="#E6E6E6"/>
<path d="M296.28 146.67C296.235 146.684 296.186 146.684 296.14 146.67L290.49 141.97C290.466 141.949 290.446 141.923 290.432 141.893C290.418 141.864 290.411 141.832 290.41 141.8C290.411 141.766 290.418 141.733 290.432 141.702C290.445 141.671 290.465 141.643 290.49 141.62L295.83 137.18C295.851 137.158 295.876 137.141 295.903 137.129C295.931 137.117 295.96 137.111 295.99 137.111C296.02 137.111 296.05 137.117 296.077 137.129C296.105 137.141 296.13 137.158 296.15 137.18C296.172 137.2 296.189 137.223 296.201 137.25C296.212 137.277 296.218 137.306 296.218 137.335C296.218 137.364 296.212 137.393 296.201 137.42C296.189 137.446 296.172 137.47 296.15 137.49L291 141.75L296.45 146.27C296.49 146.314 296.511 146.371 296.511 146.43C296.511 146.489 296.49 146.546 296.45 146.59C296.406 146.638 296.345 146.666 296.28 146.67Z" fill="#E6E6E6"/>
<path d="M303.24 146.67C303.208 146.669 303.176 146.662 303.146 146.648C303.117 146.634 303.091 146.614 303.07 146.59C303.048 146.569 303.031 146.544 303.019 146.517C303.007 146.489 303.001 146.46 303.001 146.43C303.001 146.4 303.007 146.37 303.019 146.343C303.031 146.315 303.048 146.29 303.07 146.27L308.51 141.75L303.37 137.47C303.348 137.45 303.331 137.426 303.319 137.4C303.308 137.373 303.302 137.344 303.302 137.315C303.302 137.286 303.308 137.257 303.319 137.23C303.331 137.203 303.348 137.179 303.37 137.16C303.391 137.138 303.415 137.121 303.443 137.109C303.47 137.097 303.5 137.091 303.53 137.091C303.56 137.091 303.59 137.097 303.617 137.109C303.645 137.121 303.669 137.138 303.69 137.16L309.03 141.6C309.058 141.621 309.08 141.648 309.096 141.679C309.111 141.711 309.12 141.745 309.12 141.78C309.12 141.813 309.111 141.846 309.096 141.876C309.08 141.905 309.057 141.931 309.03 141.95L303.39 146.65C303.343 146.669 303.291 146.676 303.24 146.67Z" fill="#E6E6E6"/>
<path d="M296.94 147.68H296.84C296.813 147.667 296.789 147.649 296.77 147.627C296.75 147.605 296.735 147.579 296.726 147.551C296.717 147.523 296.713 147.494 296.716 147.464C296.718 147.435 296.726 147.406 296.74 147.38L302.33 136.21C302.343 136.183 302.362 136.159 302.385 136.139C302.408 136.12 302.435 136.105 302.464 136.096C302.493 136.086 302.523 136.083 302.553 136.085C302.583 136.088 302.613 136.096 302.64 136.11C302.692 136.138 302.731 136.184 302.749 136.24C302.768 136.296 302.765 136.357 302.74 136.41L297.14 147.58C297.118 147.613 297.089 147.64 297.053 147.657C297.018 147.675 296.979 147.683 296.94 147.68Z" fill="#E6E6E6"/>
<path d="M243.32 32.2798H132.63C131.724 32.2796 130.827 32.4603 129.992 32.8114C129.157 33.1624 128.401 33.6768 127.768 34.3242C127.134 34.9716 126.636 35.739 126.304 36.5815C125.971 37.4239 125.81 38.3243 125.83 39.2298V112.74C125.83 113.38 126.14 114.28 126.77 114.28H249.18C249.575 114.211 249.941 114.029 250.234 113.756C250.528 113.482 250.734 113.129 250.83 112.74V39.2298C250.83 35.3698 247.18 32.2798 243.32 32.2798ZM247.83 112.28H127.83V39.2298C127.83 36.6298 130.03 35.2798 132.63 35.2798H243.32C245.92 35.2798 247.83 36.6298 247.83 39.2298V112.28Z" fill="#F2F2F2"/>
<path d="M241.64 39.75H134.31C133.675 39.75 133.16 40.2649 133.16 40.9V105.21C133.16 105.845 133.675 106.36 134.31 106.36H241.64C242.275 106.36 242.79 105.845 242.79 105.21V40.9C242.79 40.2649 242.275 39.75 241.64 39.75Z" fill="#F2F2F2"/>
<path d="M249.19 125.14H126.77C122.06 125.14 118.23 122.14 118.23 118.37V112.74C118.233 112.437 118.355 112.147 118.571 111.933C118.786 111.72 119.077 111.6 119.38 111.6H256.58C256.883 111.6 257.173 111.72 257.387 111.934C257.6 112.148 257.72 112.438 257.72 112.74V118.37C257.72 122.1 253.89 125.14 249.19 125.14ZM120.53 113.89V118.37C120.53 120.79 123.39 122.85 126.77 122.85H249.19C252.57 122.85 255.43 120.79 255.43 118.37V113.89H120.53Z" fill="#F2F2F2"/>
<path d="M188 122C187.288 122 186.592 121.789 186 121.393C185.408 120.998 184.947 120.435 184.674 119.777C184.402 119.12 184.331 118.396 184.47 117.697C184.608 116.999 184.951 116.358 185.455 115.854C185.958 115.351 186.6 115.008 187.298 114.869C187.996 114.73 188.72 114.801 189.378 115.074C190.036 115.346 190.598 115.808 190.994 116.4C191.389 116.992 191.6 117.688 191.6 118.4C191.6 119.355 191.221 120.27 190.546 120.945C189.871 121.621 188.955 122 188 122ZM188 117.09C187.741 117.09 187.488 117.167 187.273 117.311C187.057 117.455 186.889 117.659 186.79 117.898C186.691 118.138 186.665 118.401 186.716 118.655C186.766 118.909 186.891 119.143 187.074 119.326C187.257 119.509 187.491 119.634 187.745 119.685C187.999 119.735 188.262 119.709 188.502 119.61C188.741 119.511 188.946 119.343 189.09 119.128C189.234 118.912 189.31 118.659 189.31 118.4C189.314 118.225 189.283 118.052 189.219 117.889C189.155 117.727 189.06 117.579 188.937 117.454C188.815 117.329 188.67 117.23 188.509 117.162C188.348 117.095 188.175 117.06 188 117.06V117.09Z" fill="#F2F2F2"/>
<g filter="url(#filter0_d_8497_32239)">
<path d="M150 95.5898C147.873 93.3116 145.119 91.7153 142.085 91.0026C139.051 90.2898 135.873 90.4928 132.954 91.5857C130.036 92.6786 127.506 94.6123 125.686 97.1426C123.867 99.6728 122.838 102.686 122.73 105.801C122.622 108.915 123.441 111.992 125.082 114.642C126.723 117.292 129.112 119.396 131.949 120.688C134.785 121.979 137.941 122.401 141.017 121.9C144.093 121.398 146.951 119.996 149.23 117.87C152.283 115.015 154.079 111.066 154.223 106.889C154.367 102.712 152.849 98.6484 150 95.5898ZM146.47 114.91C144.775 116.49 142.649 117.531 140.361 117.903C138.073 118.275 135.727 117.96 133.618 116.999C131.509 116.037 129.733 114.472 128.514 112.501C127.295 110.53 126.687 108.241 126.768 105.925C126.849 103.609 127.615 101.369 128.969 99.4876C130.323 97.6066 132.205 96.1694 134.376 95.3575C136.546 94.5457 138.909 94.3957 141.165 94.9265C143.421 95.4573 145.469 96.6451 147.05 98.3398C149.173 100.611 150.307 103.632 150.204 106.739C150.101 109.846 148.769 112.784 146.5 114.91H146.47Z" fill="white"/>
<path d="M151.207 106.344C151.295 99.424 145.757 93.7431 138.838 93.6549C131.918 93.5667 126.237 99.1047 126.149 106.024C126.061 112.944 131.599 118.625 138.518 118.713C145.438 118.801 151.119 113.263 151.207 106.344Z" fill="#F2F2F2"/>
<path opacity="0.35" d="M130.58 106.97C131.292 106.97 131.87 106.392 131.87 105.68C131.87 104.967 131.292 104.39 130.58 104.39C129.868 104.39 129.29 104.967 129.29 105.68C129.29 106.392 129.868 106.97 130.58 106.97Z" fill="white"/>
<path d="M149.38 95.74C147.313 93.6069 144.659 92.1357 141.754 91.5128C138.85 90.8898 135.826 91.1432 133.066 92.2408C130.305 93.3384 127.933 95.2309 126.25 97.6782C124.566 100.126 123.648 103.018 123.61 105.988C123.572 108.958 124.416 111.872 126.037 114.362C127.657 116.851 129.98 118.804 132.712 119.972C135.443 121.139 138.459 121.47 141.379 120.921C144.298 120.373 146.989 118.97 149.11 116.89C150.517 115.519 151.64 113.885 152.416 112.08C153.191 110.275 153.603 108.335 153.628 106.371C153.653 104.407 153.291 102.457 152.562 100.633C151.833 98.8086 150.752 97.146 149.38 95.74ZM129.7 114.93C127.971 113.155 126.806 110.907 126.355 108.47C125.903 106.034 126.184 103.518 127.162 101.241C128.14 98.9641 129.771 97.0283 131.849 95.6785C133.928 94.3286 136.359 93.6253 138.837 93.6574C141.315 93.6896 143.728 94.4558 145.77 95.8592C147.813 97.2625 149.393 99.24 150.312 101.542C151.231 103.843 151.446 106.365 150.931 108.789C150.417 111.213 149.195 113.43 147.42 115.16C146.242 116.31 144.849 117.216 143.32 117.827C141.792 118.437 140.158 118.741 138.512 118.719C136.866 118.698 135.241 118.352 133.729 117.702C132.217 117.052 130.847 116.11 129.7 114.93Z" fill="#CCCCCC"/>
<path d="M110.14 134C109.804 133.655 109.539 133.248 109.361 132.801C109.183 132.354 109.094 131.876 109.101 131.395C109.107 130.914 109.209 130.439 109.399 129.997C109.589 129.555 109.865 129.155 110.21 128.82L121 118.27L126.11 123.52L115.3 134.06C114.606 134.733 113.674 135.105 112.708 135.094C111.741 135.082 110.818 134.689 110.14 134Z" fill="#CCCCCC"/>
<path d="M128.959 118.152L126.446 115.574C125.39 114.49 123.655 114.468 122.571 115.524L121.669 116.404C120.585 117.46 120.563 119.195 121.62 120.279L124.133 122.856C125.189 123.94 126.924 123.962 128.007 122.906L128.909 122.026C129.993 120.97 130.015 119.235 128.959 118.152Z" fill="#FFFFFD"/>
</g>
<path d="M176.475 82.9893H173.64V87.8701H168.776V82.9893H158.724V79.526L169.049 64.3196H173.64V79.1233H176.475V82.9893ZM168.776 79.1233V75.1284C168.776 74.7525 168.781 74.3068 168.792 73.7914C168.813 73.2759 168.835 72.7604 168.856 72.245C168.878 71.7295 168.899 71.2731 168.921 70.8758C168.953 70.4677 168.974 70.1831 168.985 70.022H168.856C168.652 70.4623 168.437 70.8919 168.212 71.3107C167.986 71.7188 167.723 72.1483 167.422 72.5994L163.105 79.1233H168.776ZM194.694 76.0949C194.694 77.9957 194.544 79.6924 194.243 81.1851C193.953 82.6778 193.481 83.945 192.825 84.9867C192.181 86.0284 191.333 86.8231 190.28 87.3708C189.228 87.9184 187.95 88.1923 186.447 88.1923C184.556 88.1923 183.005 87.7144 181.791 86.7586C180.578 85.7921 179.681 84.4068 179.101 82.6027C178.521 80.7878 178.231 78.6185 178.231 76.0949C178.231 73.5498 178.494 71.3751 179.021 69.571C179.557 67.7561 180.427 66.3654 181.63 65.3989C182.833 64.4324 184.438 63.9491 186.447 63.9491C188.326 63.9491 189.872 64.4324 191.086 65.3989C192.31 66.3547 193.217 67.74 193.808 69.5549C194.399 71.359 194.694 73.539 194.694 76.0949ZM183.176 76.0949C183.176 77.8883 183.273 79.3864 183.466 80.5891C183.67 81.7811 184.009 82.6778 184.481 83.2792C184.954 83.8806 185.609 84.1813 186.447 84.1813C187.273 84.1813 187.923 83.886 188.396 83.2953C188.879 82.694 189.223 81.7973 189.427 80.6052C189.631 79.4025 189.733 77.899 189.733 76.0949C189.733 74.3015 189.631 72.8034 189.427 71.6006C189.223 70.3979 188.879 69.4958 188.396 68.8944C187.923 68.2823 187.273 67.9762 186.447 67.9762C185.609 67.9762 184.954 68.2823 184.481 68.8944C184.009 69.4958 183.67 70.3979 183.466 71.6006C183.273 72.8034 183.176 74.3015 183.176 76.0949ZM214.233 82.9893H211.398V87.8701H206.534V82.9893H196.482V79.526L206.808 64.3196H211.398V79.1233H214.233V82.9893ZM206.534 79.1233V75.1284C206.534 74.7525 206.539 74.3068 206.55 73.7914C206.571 73.2759 206.593 72.7604 206.614 72.245C206.636 71.7295 206.657 71.2731 206.679 70.8758C206.711 70.4677 206.732 70.1831 206.743 70.022H206.614C206.41 70.4623 206.195 70.8919 205.97 71.3107C205.744 71.7188 205.481 72.1483 205.181 72.5994L200.864 79.1233H206.534Z" fill="url(#paint0_linear_8497_32239)"/>
</g>
<defs>
<filter id="filter0_d_8497_32239" x="105.101" y="86.585" width="57.1318" height="56.5088" filterUnits="userSpaceOnUse" color-interpolation-filters="sRGB">
<feFlood flood-opacity="0" result="BackgroundImageFix"/>
<feColorMatrix in="SourceAlpha" type="matrix" values="0 0 0 0 0 0 0 0 0 0 0 0 0 0 0 0 0 0 127 0" result="hardAlpha"/>
<feOffset dx="2" dy="2"/>
<feGaussianBlur stdDeviation="3"/>
<feColorMatrix type="matrix" values="0 0 0 0 0 0 0 0 0 0 0 0 0 0 0 0 0 0 0.25 0"/>
<feBlend mode="normal" in2="BackgroundImageFix" result="effect1_dropShadow_8497_32239"/>
<feBlend mode="normal" in="SourceGraphic" in2="effect1_dropShadow_8497_32239" result="shape"/>
</filter>
<linearGradient id="paint0_linear_8497_32239" x1="158.16" y1="52.8701" x2="165.556" y2="104.918" gradientUnits="userSpaceOnUse">
<stop stop-color="#2C7AAC"/>
<stop offset="1" stop-color="#26A0DA"/>
</linearGradient>
<clipPath id="clip0_8497_32239">
<rect width="365.66" height="149.78" fill="white"/>
</clipPath>
</defs>
</svg>
