<svg width="600" height="600" viewBox="0 0 600 600" fill="none" xmlns="http://www.w3.org/2000/svg">
<g clip-path="url(#clip0_13157_15216)">
<path d="M461.2 155.155H409.628C367.694 155.155 333.7 189.149 333.7 231.083V252.911C333.7 294.845 367.694 328.838 409.628 328.838H416.541L432.477 356.441C433.783 358.702 437.047 358.702 438.352 356.441L454.288 328.838H461.2C503.134 328.838 537.128 294.845 537.128 252.911V231.083C537.128 189.149 503.133 155.155 461.2 155.155Z" fill="white"/>
<path d="M457.441 175.753H390.402V299.449H483.573V201.884L457.441 175.753Z" fill="#B9CFE6"/>
<path d="M457.442 201.884H483.573L457.442 175.753V201.884Z" fill="#0575E6"/>
<path d="M423.194 224.009C423.189 223.854 423.164 223.701 423.139 223.548C423.138 223.285 423.129 223.021 423.132 222.759C423.126 221.956 422.788 221.125 422.22 220.557C421.68 220.017 420.793 219.61 420.018 219.645C419.212 219.681 418.376 219.946 417.816 220.557C417.259 221.163 416.896 221.917 416.904 222.759C416.905 222.966 416.898 223.173 416.898 223.379C416.854 223.584 416.834 223.794 416.841 224.009C416.794 225.347 416.77 226.673 416.808 228.012C416.815 228.292 416.868 228.568 416.942 228.839C416.947 228.909 416.943 228.979 416.949 229.05C417.018 229.876 417.246 230.617 417.848 231.221C418.381 231.754 419.254 232.155 420.019 232.12C420.812 232.085 421.636 231.823 422.19 231.221C422.714 230.65 423.156 229.854 423.088 229.05C423.093 228.996 423.091 228.942 423.094 228.888C423.18 228.606 423.238 228.317 423.23 228.013C423.264 226.673 423.24 225.347 423.194 224.009Z" fill="#2E344B"/>
<path d="M455.646 224.009C455.641 223.854 455.616 223.701 455.591 223.548C455.589 223.285 455.581 223.021 455.584 222.759C455.578 221.956 455.24 221.125 454.671 220.557C454.131 220.017 453.245 219.61 452.47 219.645C451.664 219.681 450.828 219.946 450.267 220.557C449.711 221.163 449.348 221.917 449.356 222.759C449.357 222.966 449.349 223.173 449.349 223.379C449.306 223.584 449.286 223.794 449.293 224.009C449.248 225.347 449.223 226.673 449.259 228.012C449.267 228.292 449.321 228.568 449.394 228.839C449.399 228.909 449.395 228.979 449.401 229.05C449.469 229.876 449.697 230.617 450.3 231.221C450.833 231.754 451.706 232.155 452.471 232.12C453.264 232.085 454.088 231.823 454.642 231.221C455.166 230.65 455.607 229.854 455.54 229.05C455.545 228.996 455.543 228.942 455.546 228.888C455.631 228.606 455.69 228.317 455.682 228.013C455.715 226.673 455.691 225.347 455.646 224.009Z" fill="#2E344B"/>
<path d="M449.948 248.8C449.749 247.325 448.152 246.305 447.026 245.515C445.956 244.763 444.793 244.177 443.586 243.682C441.055 242.647 438.241 242.183 435.518 242.499C432.902 242.803 430.375 243.67 428.154 245.096C426.339 246.261 423.42 248.311 423.419 250.725C423.419 251.224 423.926 251.642 424.419 251.487C425.365 251.191 426.151 250.418 426.869 249.761C427.685 249.016 428.581 248.379 429.546 247.84C431.423 246.791 433.549 246.148 435.702 246.07C437.835 245.992 440 246.358 441.961 247.215C442.95 247.647 443.912 248.206 444.777 248.851C445.751 249.575 446.544 250.717 447.789 250.958C449.214 251.236 450.132 250.156 449.948 248.8Z" fill="#2E344B"/>
<path d="M443.269 202.299C442.512 201.542 441.755 200.785 440.998 200.028C440.993 200.023 440.991 200.018 440.986 200.013C440.289 199.316 439.591 198.619 438.894 197.922C439.591 197.225 440.289 196.527 440.986 195.83C440.991 195.825 440.993 195.821 440.997 195.816C441.754 195.059 442.511 194.301 443.268 193.543C443.921 192.89 443.921 191.779 443.268 191.126C442.613 190.471 441.507 190.471 440.851 191.126C440.094 191.883 439.337 192.641 438.58 193.398C438.575 193.403 438.57 193.405 438.565 193.41C437.868 194.107 437.171 194.804 436.474 195.5C436.422 195.449 436.369 195.396 436.318 195.344L436.317 195.343C435.94 194.915 435.501 194.527 435.096 194.123C435.093 194.119 435.089 194.118 435.087 194.114C434.377 193.406 433.669 192.697 432.96 191.989C432.954 191.983 432.948 191.981 432.942 191.975C432.659 191.691 432.376 191.408 432.093 191.125C431.441 190.473 430.33 190.473 429.678 191.125C429.024 191.779 429.024 192.885 429.678 193.539C429.961 193.823 430.245 194.106 430.528 194.389C430.533 194.395 430.537 194.401 430.542 194.407C431.25 195.115 431.959 195.824 432.667 196.532C432.671 196.536 432.672 196.539 432.676 196.542C433.079 196.946 433.467 197.384 433.896 197.762L433.897 197.763C433.949 197.815 434.002 197.868 434.053 197.919C434.002 197.971 433.949 198.024 433.897 198.075L433.896 198.077C433.468 198.453 433.08 198.893 432.676 199.297C432.672 199.301 432.671 199.304 432.667 199.307C431.959 200.015 431.25 200.724 430.542 201.432C430.536 201.438 430.533 201.444 430.528 201.45C430.245 201.733 429.961 202.016 429.678 202.299C429.027 202.952 429.027 204.062 429.678 204.714C430.332 205.368 431.439 205.368 432.093 204.714C432.376 204.431 432.659 204.147 432.942 203.864C432.948 203.858 432.954 203.856 432.96 203.85C433.668 203.142 434.377 202.433 435.085 201.725C435.089 201.721 435.093 201.72 435.095 201.716C435.499 201.312 435.937 200.924 436.315 200.496L436.317 200.495C436.368 200.443 436.421 200.39 436.473 200.339C437.17 201.036 437.867 201.733 438.564 202.429C438.569 202.434 438.574 202.436 438.579 202.44C439.336 203.197 440.094 203.954 440.851 204.711C441.504 205.364 442.615 205.364 443.268 204.711C443.925 204.061 443.925 202.953 443.269 202.299Z" fill="#C85F64"/>
<path d="M301.803 432.417C299.89 434.784 291.146 439.157 291.146 439.157L291.419 425.495L301.803 432.417Z" fill="#2E344B"/>
<path d="M297.067 429.139L251.889 432.053C251.889 432.053 245.96 479.776 253.478 494.215C260.997 508.653 285.316 513.299 299.252 512.206C313.188 511.113 378.96 511.112 386.455 512.05C393.95 512.989 401.836 518.324 401.836 518.324H453.91C453.91 518.324 445.472 503.499 431.263 491.258C417.054 479.015 402.86 481.057 395.071 480.509C387.282 479.964 309.823 465.646 303.811 463.477C297.801 461.308 297.067 429.139 297.067 429.139Z" fill="#D8877B"/>
<path d="M297.066 429.139L260.027 431.528L258.811 434.239C258.811 434.239 280.501 438.812 297.487 437.666C297.15 432.769 297.066 429.139 297.066 429.139Z" fill="#B44E50"/>
<path d="M68.4484 429.321C74.5672 432.177 87.5752 438.885 95.7736 438.338C103.971 437.792 97.4128 419.483 97.4128 419.483L68.4484 429.321Z" fill="#2E344B"/>
<path d="M160.347 309.843C160.347 309.843 116.813 319.475 97.6853 333.957C78.5573 348.438 68.4473 418.391 68.4473 429.321C68.4473 429.321 77.0621 429.706 80.2013 429.706L113.526 490.938L110.528 520.527H266.585L258.81 434.241L301.802 432.419C301.802 432.419 285.771 348.623 273.748 338.422C261.725 328.221 217.841 317.847 217.841 317.847L178.293 310.005L160.347 309.843Z" fill="#0575E6"/>
<path d="M131.701 429.704H80.2009C80.2009 429.704 79.0945 471.759 86.6137 486.198C94.1329 500.637 118.452 505.282 132.388 504.189C146.323 503.096 212.095 503.095 219.591 504.033C227.086 504.972 234.972 510.307 234.972 510.307H287.046C287.046 510.307 278.608 495.482 264.399 483.241C250.189 470.998 235.996 473.04 228.207 472.492C220.417 471.946 142.959 457.629 136.947 455.46C130.936 453.291 131.701 429.704 131.701 429.704Z" fill="#D8877B"/>
<path d="M164.905 294.322C164.905 294.322 123.965 291.627 121.585 234.717C119.681 189.164 144.329 186.874 144.329 186.874C144.329 186.874 148.711 165.632 160.726 161.532C172.74 157.431 179.52 165.222 179.52 165.222C179.52 165.222 186.309 153.404 200.293 155.952C214.277 158.499 219.832 170.276 219.832 170.276C219.832 170.276 239.836 163.972 245.746 183.915C245.746 183.915 261.011 190.689 256.219 213.26C256.219 213.26 267.228 218.488 255.985 237.33C255.985 237.33 259.788 275.312 229.481 284.814C199.174 294.318 164.905 294.322 164.905 294.322Z" fill="#2E344B"/>
<path d="M170.386 282.758C170.386 282.758 165.982 302.997 160.347 309.841C160.347 309.841 187.194 337.785 217.842 317.842L217.644 294.457L170.386 282.758Z" fill="#D8877B"/>
<path d="M44.9527 528.782H555.215C558.233 528.782 560.68 526.335 560.68 523.317C560.68 520.299 558.233 517.853 555.215 517.853H44.9527C41.9347 517.853 39.4879 520.299 39.4879 523.317C39.4867 526.335 41.9335 528.782 44.9527 528.782Z" fill="#2E344B"/>
<path d="M163.111 305.32C189.514 322.318 217.096 307.45 217.096 307.45L203.944 291.065L170.387 282.758C170.387 282.758 167.357 296.665 163.111 305.32Z" fill="#B44E50"/>
<path d="M146.263 246.37C146.263 246.37 136.992 240.416 133.35 254.572C129.707 268.729 141.452 272.75 149.446 270.568C149.446 270.568 155.773 306.931 199.469 309.949C243.164 312.967 247.528 254.241 244.298 229.741C244.298 229.741 226.208 228.568 220.666 220.794C220.666 220.794 200.668 225.169 192.732 215.918C192.732 215.918 180.097 231.795 168.606 227.425C168.604 227.426 162.31 246.321 146.263 246.37Z" fill="#D8877B"/>
<path d="M145.397 251.303C144.007 250.472 142.315 250.303 140.803 250.91C140.087 251.198 139.251 251.767 138.861 252.452C138.582 252.943 138.456 253.825 139.161 253.998C139.674 254.123 140.145 253.739 140.532 253.457C140.964 253.142 141.513 252.889 142.039 252.787C143.004 252.6 144.035 252.939 144.729 253.633C146.16 255.06 145.701 257.415 145.235 259.381C142.994 259.151 140.664 260.66 140.196 262.963C139.698 265.416 142.357 269.413 145.13 267.857C145.658 267.56 145.695 266.852 145.127 266.57C143.945 265.982 142.139 265.034 142.62 263.393C142.974 262.183 144.589 261.614 145.673 262.101C146.442 262.448 147.269 261.889 147.408 261.111C148.011 257.744 148.927 253.411 145.397 251.303Z" fill="#B44E50"/>
<path d="M220.663 220.795C220.663 220.795 200.665 225.17 192.73 215.919C192.73 215.919 180.095 231.796 168.604 227.426C168.604 227.426 162.308 246.321 146.262 246.37C158.866 252.383 169.614 239.927 171.692 232.76C171.692 232.76 186.246 234.409 193.039 223.305C193.039 223.305 207.644 231.562 218.029 224.668C218.029 224.668 226.334 234.887 244.74 233.923C244.616 232.444 244.468 231.041 244.296 229.742C244.296 229.742 226.206 228.569 220.663 220.795Z" fill="#B44E50"/>
<path d="M153.757 311.442C156.007 315.695 158.95 319.613 162.726 322.603C167.513 326.394 173.226 328.705 178.883 330.863C184.931 333.17 191.149 334.768 197.673 334.242C203.829 333.746 209.778 331.732 215.14 328.699C219.319 326.336 223.115 323.372 226.601 320.078C225.669 319.829 224.795 319.598 223.984 319.387C217.219 325.476 209.271 330.222 200.122 331.637C193.847 332.606 187.957 331.441 182.032 329.376C176.559 327.469 170.981 325.366 166.116 322.164C161.693 319.254 158.591 315.221 155.7 310.951C155.1 311.101 154.453 311.264 153.757 311.442Z" fill="#2E344B"/>
<path d="M80.1521 437.594C105.05 438.436 131.702 429.705 131.702 429.705H80.2013C80.2013 429.705 80.1209 432.806 80.1521 437.594Z" fill="#B44E50"/>
<path d="M281.056 505.884C280.242 505.143 279.893 503.74 279.43 502.758C278.874 501.581 278.298 500.413 277.698 499.258C276.468 496.891 275.121 494.584 273.603 492.39C272.165 490.313 270.559 488.34 268.78 486.546C267.898 485.657 266.976 484.8 265.985 484.032C265.108 483.352 264.18 482.525 263.02 482.496C262.824 482.491 262.626 482.712 262.704 482.91C263.111 483.94 264.071 484.579 264.865 485.305C265.811 486.168 266.731 487.056 267.598 488.001C269.369 489.931 270.921 492.051 272.327 494.26C273.691 496.402 274.903 498.639 276.012 500.922C276.582 502.096 277.117 503.285 277.635 504.481C278.097 505.553 278.431 506.812 279.325 507.615C280.494 508.661 282.223 506.95 281.056 505.884Z" fill="#B44E50"/>
<path d="M271.13 508.755C270.81 507.951 270.464 507.16 270.068 506.391C269.316 504.928 268.45 503.524 267.483 502.194C266.511 500.856 265.452 499.598 264.277 498.434C263.18 497.348 261.892 496.104 260.376 495.664C260.108 495.586 259.902 495.886 260.026 496.119C260.757 497.474 262.008 498.549 263.002 499.708C264.018 500.89 264.956 502.146 265.8 503.457C266.648 504.772 267.399 506.148 268.047 507.573C268.37 508.282 268.68 509 268.959 509.727C269.26 510.509 269.486 511.367 270.352 511.655C270.758 511.79 271.167 511.559 271.39 511.233C271.898 510.49 271.425 509.498 271.13 508.755Z" fill="#B44E50"/>
<path d="M257.936 505.86C256.713 503.923 255.277 501.815 253.379 500.502C252.909 500.177 252.469 500.79 252.667 501.215C253.141 502.237 253.784 503.161 254.41 504.102C255.038 505.044 255.632 506.011 256.215 506.982C256.783 507.926 257.314 508.891 257.811 509.875C258.349 510.938 258.853 511.921 259.636 512.827C260.019 513.27 260.903 512.931 260.843 512.327C260.607 509.977 259.174 507.823 257.936 505.86Z" fill="#B44E50"/>
<path d="M249.865 510.642C249.402 509.313 248.742 508.039 248.091 506.793C247.74 506.119 247.354 505.469 246.952 504.825C246.559 504.195 246.039 503.406 245.367 503.057C245.088 502.912 244.728 503.089 244.729 503.423C244.732 504.065 245.054 504.745 245.322 505.324C245.618 505.963 245.94 506.599 246.259 507.228C246.888 508.467 247.401 509.757 248.013 511C248.276 511.535 248.738 512.586 249.499 512.377C250.239 512.177 250.051 511.175 249.865 510.642Z" fill="#B44E50"/>
<path d="M213.93 506.332H332.476C335.657 506.332 338.236 508.911 338.236 512.092C338.236 515.273 335.657 517.852 332.476 517.852H213.93C210.749 517.852 208.17 515.273 208.17 512.092C208.17 508.911 210.749 506.332 213.93 506.332Z" fill="#0575E6"/>
<path d="M338.236 512.093C338.236 508.912 335.658 506.333 332.476 506.333H325.342L324.332 511.074C323.588 514.565 326.251 517.854 329.82 517.854H332.478C335.658 517.853 338.236 515.274 338.236 512.093Z" fill="#2E344B"/>
<path d="M539.329 393.068H357.962C355.314 393.068 353.027 394.92 352.475 397.51L328.278 511.072C327.534 514.562 330.195 517.852 333.765 517.852H515.132C517.781 517.852 520.068 516 520.62 513.41L544.817 399.847C545.561 396.358 542.899 393.068 539.329 393.068Z" fill="#0575E6"/>
<path d="M436.548 470.982C445.12 470.982 452.068 464.033 452.068 455.461C452.068 446.889 445.12 439.94 436.548 439.94C427.976 439.94 421.027 446.889 421.027 455.461C421.027 464.033 427.976 470.982 436.548 470.982Z" fill="#B9CFE6"/>
<path d="M304.688 464.16C304.249 463.989 303.872 463.73 303.438 463.546C303.081 463.396 302.739 463.222 302.398 463.037C301.638 462.624 300.9 462.204 300.241 461.637C299.578 461.066 298.987 460.416 298.446 459.731C297.908 459.052 297.514 458.279 297.013 457.577C296.788 457.263 296.229 457.344 296.239 457.787C296.26 458.784 296.682 459.722 297.162 460.581C297.648 461.451 298.327 462.232 299.073 462.887C299.83 463.551 300.692 464.193 301.627 464.582C302.076 464.769 302.546 464.951 303.022 465.053C303.524 465.161 304.048 465.126 304.56 465.117C305.136 465.104 305.182 464.354 304.688 464.16Z" fill="#B44E50"/>
<path d="M138.074 455.408C137.677 455.224 137.312 454.952 136.904 454.804C136.457 454.642 136.009 454.487 135.561 454.331C134.711 454.037 133.871 453.696 133.066 453.296C132.267 452.897 131.5 452.432 130.745 451.954C129.977 451.467 129.266 450.856 128.369 450.66C128.192 450.622 128.03 450.771 128.075 450.954C128.306 451.872 129.041 452.518 129.758 453.105C130.526 453.732 131.35 454.266 132.225 454.733C133.078 455.189 133.966 455.582 134.888 455.878C135.368 456.033 135.849 456.143 136.346 456.226C136.852 456.31 137.351 456.226 137.861 456.183C138.231 456.15 138.483 455.597 138.074 455.408Z" fill="#B44E50"/>
<path d="M84.4692 417.258C84.5976 417.261 84.7068 417.235 84.8052 417.197C90.4416 417.201 96.078 417.214 101.714 417.225C106.794 417.234 111.872 417.329 116.952 417.324C122.069 417.319 127.303 417.621 132.397 417.088C132.379 417.361 132.36 417.634 132.341 417.907C132.203 419.964 132.065 422.021 131.927 424.077C131.792 426.082 131.242 428.523 131.909 430.456C132.113 431.045 133.025 431.291 133.346 430.643C134.197 428.927 134.033 426.792 134.147 424.918L134.54 418.468C134.803 414.168 135.07 409.869 135.316 405.568C135.562 401.269 135.84 396.969 136.01 392.668C136.092 390.611 136.175 388.554 136.256 386.499C136.34 384.403 136.559 382.309 136.189 380.239C136.128 379.894 135.634 379.948 135.542 380.239C134.934 382.17 134.886 384.207 134.708 386.218C134.519 388.368 134.329 390.517 134.14 392.668C133.769 396.869 133.505 401.081 133.201 405.288C132.952 408.754 132.724 412.222 132.492 415.69C127.367 415.143 122.099 415.45 116.951 415.445C111.871 415.44 106.793 415.535 101.713 415.545C96.0768 415.555 90.4404 415.569 84.804 415.572C84.7056 415.535 84.5952 415.509 84.468 415.512C79.8624 415.407 75.2772 415.529 70.674 415.552C70.2828 415.549 70.038 415.773 69.9312 416.053C69.6588 416.159 69.6588 416.611 69.9312 416.717C70.0368 416.998 70.2816 417.221 70.674 417.219C75.2784 417.241 79.8636 417.364 84.4692 417.258Z" fill="#2E344B"/>
<path d="M299.151 419.36C293.394 419.901 287.633 420.389 281.864 420.76C278.04 421.005 274.214 421.209 270.386 421.372C268.518 421.451 266.65 421.54 264.783 421.613C262.875 421.688 260.873 421.6 258.996 421.986C258.927 422.001 258.868 422.031 258.814 422.064C258.802 421.875 258.789 421.684 258.778 421.494C258.543 417.27 258.311 413.046 258.07 408.822C257.604 400.65 257.453 392.324 256.311 384.22C256.247 383.772 255.561 383.903 255.548 384.323C255.417 388.449 255.707 392.585 255.882 396.713C256.062 400.938 256.284 405.161 256.505 409.385C256.72 413.516 256.944 417.646 257.165 421.775C257.382 425.834 257.326 430.048 258 434.06C258.076 434.51 258.491 434.608 258.833 434.477L258.812 434.238L259.168 434.223C259.239 434.127 259.294 434.016 259.301 433.883C259.505 430.383 259.142 426.784 258.891 423.257C258.926 423.27 258.956 423.291 258.995 423.297C260.798 423.587 262.683 423.426 264.501 423.384C266.463 423.34 268.424 423.291 270.384 423.209C274.212 423.052 278.039 422.853 281.862 422.613C287.762 422.242 293.651 421.766 299.532 421.182C299.41 420.593 299.283 419.987 299.151 419.36Z" fill="#2E344B"/>
<path d="M230.515 446.537C228.462 446.765 226.521 447.79 224.594 448.492C222.613 449.213 220.62 449.902 218.606 450.525C214.499 451.797 210.318 452.827 206.091 453.613C197.555 455.201 188.822 455.768 180.152 455.323C175.277 455.072 170.457 454.331 165.607 453.857C165.079 453.805 165.002 454.619 165.485 454.759C173.763 457.175 182.955 457.438 191.529 457.11C200.288 456.775 209.024 455.404 217.464 453.04C219.897 452.358 222.317 451.604 224.69 450.736C226.813 449.958 229.287 449.268 231.033 447.787C231.495 447.397 231.14 446.467 230.515 446.537Z" fill="#2E344B"/>
<path d="M235.695 451.905C234.505 452.142 233.378 452.736 232.295 453.274C231.143 453.846 229.985 454.415 228.818 454.956C227.689 455.481 226.532 455.937 225.399 456.449C224.353 456.922 223.018 457.314 222.271 458.227C222.185 458.331 222.207 458.5 222.352 458.538C223.505 458.838 224.81 458.315 225.908 457.975C227.132 457.596 228.326 457.087 229.507 456.591C230.692 456.093 231.862 455.571 233.006 454.983C234.146 454.396 235.342 453.751 236.21 452.79C236.576 452.387 236.216 451.801 235.695 451.905Z" fill="#2E344B"/>
<path d="M191.882 234.997C190.03 234.393 188.076 234.566 186.22 235.074C184.442 235.56 182.587 236.318 181.139 237.478C179.67 238.654 178.061 240.139 177.854 242.104C177.674 243.825 179.146 244.91 180.72 244.8C181.928 244.714 182.932 243.98 184.016 243.52C184.808 243.184 185.621 242.869 186.439 242.588C188.135 242.136 189.89 242.004 191.558 241.485C191.251 241.58 190.944 241.675 190.637 241.77C191.328 241.564 192.034 241.426 192.647 241.038C193.32 240.612 193.855 240.052 194.142 239.29C194.806 237.531 193.606 235.558 191.882 234.997Z" fill="#2E344B"/>
<path d="M230.736 243.971C230.538 243.408 230.334 242.867 229.959 242.39C229.731 242.099 229.476 241.827 229.219 241.563C228.552 240.874 227.838 240.196 227.064 239.627C226.313 239.074 225.439 238.636 224.603 238.235C224.257 238.07 223.902 237.898 223.536 237.784C222.993 237.616 222.411 237.532 221.849 237.462C220.808 237.335 219.626 238.023 219.289 239.037C218.955 240.04 219.216 241.319 220.16 241.919C220.362 242.048 220.561 242.18 220.757 242.318C221.118 242.573 221.504 242.771 221.895 242.979C221.691 242.87 221.486 242.759 221.282 242.65C222.474 243.29 223.59 244.11 224.609 245.008C224.885 245.274 225.158 245.543 225.411 245.831C225.872 246.354 226.397 246.706 226.937 247.124C227.796 247.787 229.244 247.745 230.054 247.008C230.379 246.713 230.633 246.358 230.807 245.955C231.085 245.306 230.959 244.604 230.736 243.971Z" fill="#2E344B"/>
<path d="M195.009 255.879C195.011 253.69 194.419 251.606 193.203 250.403C192.747 249.952 192.215 249.64 191.611 249.467C191.039 249.195 190.428 249.078 189.781 249.119C188.512 249.212 187.198 249.677 186.353 250.679C186.114 251.016 185.875 251.354 185.637 251.691C184.542 253.235 184.681 256.755 184.641 258.56C184.591 260.716 185.508 263.177 187.776 263.825C188.343 264.095 188.946 264.21 189.587 264.17C193.141 263.946 195.005 259.749 195.009 255.879Z" fill="#2E344B"/>
<path d="M226.487 259.212C226.49 257.107 225.921 255.103 224.751 253.947C224.312 253.513 223.802 253.213 223.221 253.047C222.67 252.784 222.083 252.672 221.461 252.712C220.24 252.801 218.977 253.249 218.163 254.212C217.934 254.536 217.703 254.86 217.474 255.185C216.422 256.671 216.555 260.055 216.517 261.791C216.47 263.865 217.351 266.232 219.532 266.855C220.077 267.114 220.658 267.225 221.275 267.186C224.692 266.97 226.484 262.935 226.487 259.212Z" fill="#2E344B"/>
<path d="M207.563 267.892C206.662 266.646 206.086 265.248 205.877 263.72C205.774 262.962 205.771 262.204 205.859 261.444C205.948 260.683 206.311 259.837 205.768 259.179C205.532 258.894 205.191 258.872 204.866 258.976C203.647 259.364 203.666 261.781 203.68 262.81C203.699 264.318 203.989 265.796 204.577 267.187C204.854 267.842 205.208 268.455 205.599 269.049C205.958 269.593 206.495 270.198 206.621 270.856C206.729 271.424 206.271 271.738 205.876 272.062C205.226 272.598 204.451 273.129 204.038 273.88C203.643 274.598 204.088 275.626 205.022 275.456C206.491 275.19 208.106 273.751 208.727 272.404C209.492 270.75 208.516 269.21 207.563 267.892Z" fill="#B44E50"/>
<path d="M207.982 282.044C206.566 281.614 205.092 281.363 203.612 281.365C202.073 281.366 200.525 281.548 199.07 282.066C198.431 282.293 197.8 282.589 197.223 282.943C196.576 283.339 195.728 283.819 195.663 284.662C195.634 285.04 195.845 285.355 196.184 285.508C196.775 285.772 197.382 285.486 197.954 285.306C198.567 285.113 199.187 284.953 199.82 284.834C201.014 284.61 202.181 284.435 203.391 284.491C204.575 284.546 205.702 284.742 206.81 285.128C208.055 285.563 209.37 286.582 210.738 286.362C211.377 286.26 211.947 285.566 211.781 284.903C211.362 283.223 209.487 282.503 207.982 282.044Z" fill="#B44E50"/>
<path d="M195.119 249.976C195.024 249.826 194.929 249.676 194.834 249.526C194.668 249.311 194.462 249.151 194.218 249.045C193.992 248.899 193.742 248.816 193.468 248.798C193.451 248.798 193.435 248.798 193.418 248.798C193.042 248.761 192.68 248.821 192.336 248.978C192.007 249.131 191.737 249.356 191.525 249.651C191.442 249.806 191.358 249.961 191.275 250.115C191.144 250.463 191.108 250.821 191.168 251.189C191.204 251.471 191.306 251.723 191.474 251.944C191.598 252.183 191.776 252.377 192.005 252.529C192.301 252.739 192.629 252.863 192.99 252.902C193.367 252.939 193.728 252.878 194.072 252.722C194.088 252.716 194.104 252.711 194.119 252.705C194.269 252.61 194.419 252.515 194.569 252.421C194.784 252.254 194.945 252.049 195.05 251.804C195.155 251.656 195.217 251.493 195.236 251.313C195.323 251.05 195.337 250.78 195.281 250.503C195.227 250.328 195.173 250.153 195.119 249.976Z" fill="white"/>
<path d="M226.551 253.314C226.456 253.164 226.361 253.014 226.266 252.864C226.1 252.649 225.894 252.488 225.65 252.383C225.424 252.236 225.174 252.154 224.9 252.136C224.883 252.136 224.866 252.136 224.85 252.136C224.474 252.098 224.112 252.158 223.768 252.316C223.439 252.469 223.169 252.694 222.957 252.989C222.874 253.144 222.79 253.298 222.707 253.453C222.576 253.801 222.54 254.159 222.6 254.527C222.636 254.809 222.738 255.061 222.906 255.282C223.03 255.521 223.208 255.715 223.437 255.866C223.733 256.076 224.061 256.201 224.422 256.24C224.799 256.277 225.16 256.216 225.504 256.06C225.52 256.054 225.536 256.049 225.551 256.043C225.701 255.948 225.851 255.853 226.001 255.758C226.216 255.592 226.377 255.386 226.482 255.142C226.587 254.994 226.649 254.831 226.668 254.651C226.755 254.388 226.77 254.118 226.713 253.841C226.659 253.666 226.605 253.49 226.551 253.314Z" fill="white"/>
<path d="M235.359 121.322C235.412 120.08 235.861 119.069 236.708 118.291C237.557 117.465 238.603 117.078 239.846 117.13C241.806 117.213 243.586 117.001 245.188 116.494C246.792 115.939 248.076 115.012 249.04 113.712C250.053 112.414 250.606 110.666 250.698 108.467C250.767 106.842 250.421 105.391 249.661 104.114C248.949 102.838 247.915 101.813 246.559 101.038C245.251 100.264 243.737 99.841 242.016 99.7683C240.677 99.7118 239.401 99.8973 238.185 100.325C237.018 100.754 235.939 101.355 234.949 102.127C234.156 102.764 233.203 103.227 232.089 103.515C231.025 103.757 229.961 103.449 228.896 102.59C227.785 101.681 227.207 100.627 227.162 99.4282C227.117 98.2292 227.618 97.149 228.664 96.1877C230.459 94.4918 232.524 93.2143 234.859 92.3552C237.244 91.4504 239.75 91.0535 242.379 91.1645C245.677 91.3038 248.609 92.1938 251.173 93.8344C253.787 95.4292 255.829 97.5266 257.3 100.127C258.77 102.727 259.437 105.628 259.302 108.83C259.201 111.22 258.753 113.332 257.957 115.166C257.164 116.952 256.069 118.486 254.674 119.768C253.329 121.004 251.755 121.991 249.952 122.729C248.199 123.421 246.288 123.891 244.219 124.139C244.121 124.182 244.023 124.226 243.926 124.27C243.876 124.316 243.849 124.386 243.845 124.482L243.733 127.135C243.68 128.378 243.23 129.412 242.381 130.238C241.534 131.016 240.489 131.379 239.246 131.327C238.004 131.274 236.993 130.824 236.215 129.978C235.439 129.083 235.077 128.014 235.129 126.771L235.359 121.322ZM238.346 144.145C236.96 144.087 235.899 143.683 235.165 142.934C234.48 142.139 234.167 141.048 234.226 139.662L234.277 138.443C234.336 137.057 234.738 136.02 235.486 135.334C236.283 134.601 237.374 134.264 238.761 134.323L239.693 134.362C241.079 134.421 242.114 134.848 242.799 135.643C243.533 136.392 243.871 137.46 243.813 138.846L243.761 140.065C243.703 141.451 243.275 142.51 242.478 143.243C241.731 143.929 240.664 144.243 239.278 144.185L238.346 144.145Z" fill="#0575E6"/>
<path d="M275.296 140.18C276.015 139.351 276.88 138.901 277.892 138.83C278.931 138.726 279.865 139.034 280.694 139.753C282 140.887 283.345 141.719 284.728 142.249C286.139 142.747 287.534 142.813 288.914 142.446C290.326 142.107 291.667 141.205 292.939 139.739C293.879 138.656 294.438 137.465 294.615 136.166C294.825 134.895 294.675 133.62 294.165 132.34C293.688 131.088 292.876 129.964 291.729 128.969C290.837 128.194 289.854 127.621 288.781 127.248C287.74 126.903 286.665 126.725 285.558 126.714C284.661 126.717 283.749 126.513 282.823 126.1C281.956 125.683 281.391 124.885 281.129 123.707C280.862 122.47 281.042 121.426 281.669 120.574C282.297 119.722 283.236 119.252 284.486 119.164C286.656 118.98 288.782 119.233 290.864 119.923C293.006 120.609 294.954 121.713 296.706 123.233C298.904 125.141 300.438 127.366 301.305 129.906C302.232 132.442 302.489 135.011 302.075 137.612C301.661 140.213 300.527 142.581 298.674 144.716C297.292 146.309 295.822 147.52 294.266 148.348C292.737 149.144 291.14 149.601 289.473 149.719C287.867 149.832 286.239 149.648 284.59 149.167C283 148.681 281.424 147.955 279.86 146.989C279.769 146.966 279.677 146.943 279.586 146.919C279.526 146.923 279.469 146.957 279.414 147.021L277.879 148.789C277.16 149.618 276.281 150.084 275.241 150.187C274.23 150.259 273.31 149.935 272.481 149.216C271.653 148.497 271.203 147.632 271.131 146.62C271.087 145.576 271.425 144.64 272.144 143.812L275.296 140.18ZM264.818 157.564C263.894 156.762 263.384 155.901 263.289 154.98C263.254 154.056 263.637 153.132 264.439 152.207L265.144 151.395C265.946 150.471 266.793 149.977 267.686 149.914C268.638 149.847 269.576 150.214 270.5 151.016L271.121 151.555C272.045 152.357 272.525 153.22 272.561 154.145C272.656 155.065 272.302 155.988 271.5 156.912L270.795 157.724C269.993 158.648 269.116 159.144 268.164 159.211C267.271 159.274 266.363 158.905 265.439 158.103L264.818 157.564Z" fill="#0575E6"/>
<path d="M192.244 122.362C191.993 121.355 192.115 120.441 192.61 119.619C193.095 118.758 193.841 118.202 194.847 117.952C196.435 117.557 197.81 116.968 198.972 116.186C200.125 115.364 200.934 114.32 201.4 113.053C201.905 111.776 201.936 110.247 201.493 108.466C201.165 107.149 200.547 106.069 199.638 105.226C198.768 104.374 197.7 103.797 196.432 103.495C195.203 103.184 193.892 103.202 192.498 103.549C191.414 103.818 190.436 104.267 189.564 104.895C188.731 105.514 188.009 106.248 187.399 107.099C186.914 107.795 186.26 108.39 185.437 108.882C184.643 109.327 183.718 109.331 182.664 108.894C181.561 108.428 180.851 107.721 180.533 106.772C180.214 105.823 180.361 104.841 180.972 103.826C182.009 102.046 183.361 100.538 185.027 99.3011C186.722 98.0159 188.634 97.1084 190.764 96.5786C193.436 95.914 195.991 95.9363 198.429 96.6456C200.896 97.3066 203.024 98.5043 204.812 100.239C206.6 101.973 207.817 104.137 208.463 106.732C208.944 108.668 209.082 110.463 208.877 112.118C208.662 113.734 208.148 115.219 207.333 116.573C206.548 117.878 205.521 119.038 204.252 120.053C203.012 121.019 201.593 121.845 199.996 122.531C199.928 122.588 199.86 122.646 199.792 122.704C199.763 122.753 199.758 122.816 199.777 122.893L200.312 125.042C200.562 126.049 200.445 126.983 199.96 127.844C199.466 128.666 198.715 129.202 197.708 129.452C196.702 129.703 195.787 129.581 194.965 129.086C194.133 128.553 193.592 127.783 193.342 126.776L192.244 122.362ZM200.004 139.921C198.881 140.201 197.938 140.127 197.174 139.7C196.439 139.225 195.932 138.426 195.652 137.303L195.407 136.316C195.127 135.193 195.206 134.269 195.642 133.544C196.108 132.77 196.902 132.243 198.025 131.964L198.78 131.776C199.903 131.497 200.832 131.595 201.567 132.07C202.331 132.496 202.852 133.271 203.132 134.394L203.377 135.382C203.657 136.505 203.564 137.453 203.098 138.227C202.662 138.952 201.882 139.454 200.759 139.734L200.004 139.921Z" fill="#0575E6"/>
<path d="M408.699 262.317C408.981 262.317 409.21 262.411 409.387 262.599C409.563 262.787 409.651 263.023 409.651 263.305V273.59C409.651 273.896 409.545 274.154 409.334 274.366C409.134 274.566 408.881 274.666 408.575 274.666C408.422 274.666 408.263 274.642 408.099 274.595C407.946 274.537 407.828 274.46 407.746 274.366L400.813 265.563L401.272 265.281V273.678C401.272 273.96 401.177 274.196 400.989 274.384C400.813 274.572 400.578 274.666 400.284 274.666C400.001 274.666 399.772 274.572 399.596 274.384C399.419 274.196 399.331 273.96 399.331 273.678V263.393C399.331 263.087 399.431 262.834 399.631 262.634C399.843 262.423 400.101 262.317 400.407 262.317C400.572 262.317 400.742 262.352 400.919 262.423C401.095 262.482 401.224 262.576 401.307 262.705L408.028 271.279L407.728 271.491V263.305C407.728 263.023 407.817 262.787 407.993 262.599C408.169 262.411 408.405 262.317 408.699 262.317ZM423.665 268.491C423.665 269.374 423.518 270.197 423.224 270.961C422.93 271.726 422.512 272.402 421.971 272.99C421.442 273.566 420.807 274.019 420.066 274.348C419.337 274.678 418.537 274.842 417.667 274.842C416.796 274.842 415.997 274.678 415.267 274.348C414.538 274.019 413.903 273.566 413.362 272.99C412.833 272.402 412.421 271.726 412.127 270.961C411.833 270.197 411.686 269.374 411.686 268.491C411.686 267.609 411.833 266.786 412.127 266.022C412.421 265.257 412.833 264.587 413.362 264.011C413.903 263.422 414.538 262.964 415.267 262.634C415.997 262.305 416.796 262.141 417.667 262.141C418.537 262.141 419.337 262.305 420.066 262.634C420.807 262.964 421.442 263.422 421.971 264.011C422.512 264.587 422.93 265.257 423.224 266.022C423.518 266.786 423.665 267.609 423.665 268.491ZM421.371 268.491C421.371 267.703 421.213 266.992 420.895 266.357C420.578 265.71 420.142 265.198 419.59 264.822C419.037 264.446 418.396 264.257 417.667 264.257C416.938 264.257 416.297 264.446 415.744 264.822C415.191 265.198 414.756 265.704 414.438 266.339C414.133 266.974 413.98 267.692 413.98 268.491C413.98 269.279 414.133 269.997 414.438 270.644C414.756 271.279 415.191 271.785 415.744 272.161C416.297 272.537 416.938 272.725 417.667 272.725C418.396 272.725 419.037 272.537 419.59 272.161C420.142 271.785 420.578 271.279 420.895 270.644C421.213 269.997 421.371 269.279 421.371 268.491ZM435.927 262.317C436.774 262.317 437.526 262.476 438.185 262.793C438.844 263.111 439.396 263.558 439.843 264.134C440.302 264.699 440.643 265.357 440.866 266.11C441.102 266.851 441.219 267.645 441.219 268.491C441.219 269.632 441.013 270.673 440.602 271.614C440.19 272.543 439.59 273.284 438.802 273.837C438.026 274.39 437.068 274.666 435.927 274.666H431.71C431.405 274.666 431.146 274.566 430.934 274.366C430.734 274.154 430.634 273.896 430.634 273.59V263.393C430.634 263.087 430.734 262.834 430.934 262.634C431.146 262.423 431.405 262.317 431.71 262.317H435.927ZM435.75 272.637C436.491 272.637 437.097 272.449 437.567 272.073C438.038 271.685 438.379 271.179 438.591 270.556C438.814 269.92 438.926 269.232 438.926 268.491C438.926 267.939 438.861 267.415 438.732 266.921C438.614 266.416 438.426 265.975 438.167 265.598C437.909 265.21 437.579 264.904 437.179 264.681C436.78 264.457 436.303 264.346 435.75 264.346H432.663L432.84 264.187V272.831L432.734 272.637H435.75ZM447.693 265.087L443.882 274.049C443.8 274.272 443.671 274.448 443.494 274.578C443.33 274.695 443.147 274.754 442.947 274.754C442.63 274.754 442.395 274.666 442.242 274.49C442.089 274.313 442.012 274.096 442.012 273.837C442.012 273.731 442.03 273.619 442.065 273.502L446.458 262.952C446.552 262.717 446.693 262.535 446.882 262.405C447.081 262.276 447.293 262.223 447.517 262.246C447.728 262.246 447.922 262.311 448.099 262.44C448.287 262.558 448.422 262.729 448.505 262.952L452.844 273.29C452.903 273.443 452.933 273.584 452.933 273.713C452.933 274.031 452.827 274.284 452.615 274.472C452.415 274.66 452.192 274.754 451.945 274.754C451.733 274.754 451.539 274.69 451.363 274.56C451.198 274.431 451.068 274.254 450.974 274.031L447.181 265.192L447.693 265.087ZM444.429 271.896L445.4 269.868H450.163L450.498 271.896H444.429ZM457.729 274.666C457.399 274.666 457.129 274.566 456.917 274.366C456.706 274.154 456.6 273.896 456.6 273.59V263.358H458.893V273.59C458.893 273.896 458.781 274.154 458.558 274.366C458.346 274.566 458.07 274.666 457.729 274.666ZM453.83 264.346C453.524 264.346 453.265 264.252 453.054 264.063C452.854 263.875 452.754 263.628 452.754 263.322C452.754 263.017 452.854 262.776 453.054 262.599C453.265 262.411 453.524 262.317 453.83 262.317H461.663C461.969 262.317 462.221 262.411 462.421 262.599C462.633 262.787 462.739 263.034 462.739 263.34C462.739 263.646 462.633 263.893 462.421 264.081C462.221 264.257 461.969 264.346 461.663 264.346H453.83ZM468.246 265.087L464.436 274.049C464.353 274.272 464.224 274.448 464.047 274.578C463.883 274.695 463.701 274.754 463.501 274.754C463.183 274.754 462.948 274.666 462.795 274.49C462.642 274.313 462.566 274.096 462.566 273.837C462.566 273.731 462.583 273.619 462.619 273.502L467.011 262.952C467.105 262.717 467.246 262.535 467.435 262.405C467.635 262.276 467.846 262.223 468.07 262.246C468.281 262.246 468.476 262.311 468.652 262.44C468.84 262.558 468.975 262.729 469.058 262.952L473.398 273.29C473.456 273.443 473.486 273.584 473.486 273.713C473.486 274.031 473.38 274.284 473.168 274.472C472.968 274.66 472.745 274.754 472.498 274.754C472.286 274.754 472.092 274.69 471.916 274.56C471.751 274.431 471.622 274.254 471.527 274.031L467.735 265.192L468.246 265.087ZM464.982 271.896L465.953 269.868H470.716L471.051 271.896H464.982Z" fill="#0575E6"/>
</g>
<defs>
<clipPath id="clip0_13157_15216">
<rect width="600" height="600" fill="white"/>
</clipPath>
</defs>
</svg>
